<?xml version="1.0" encoding="UTF-8"?>
<svg version="1.1" xmlns="http://www.w3.org/2000/svg" width="1536" height="1024">
<path d="M0 0 C506.88 0 1013.76 0 1536 0 C1536 337.92 1536 675.84 1536 1024 C1029.12 1024 522.24 1024 0 1024 C0 686.08 0 348.16 0 0 Z " fill="#FDFDFD" transform="translate(0,0)"/>
<path d="M0 0 C1.21746918 0.00131424 1.21746918 0.00131424 2.45953369 0.00265503 C16.00165918 0.05069326 28.89220639 1.01567705 42.0625 4.375 C42.99094727 4.60574219 43.91939453 4.83648437 44.87597656 5.07421875 C72.04164127 12.03363675 95.16503763 24.95448481 116.0625 43.375 C117.20332031 44.33212891 117.20332031 44.33212891 118.3671875 45.30859375 C123.4424968 49.5840975 127.81804259 54.27852444 132.0625 59.375 C132.83464844 60.29796875 133.60679687 61.2209375 134.40234375 62.171875 C154.24189095 86.86944719 165.43726259 117.21445656 170.0625 148.375 C170.19785156 149.27621582 170.33320312 150.17743164 170.47265625 151.10595703 C172.39948921 164.26179966 173.5157285 177.08029732 173.0625 190.375 C173.55951416 190.08367187 174.05652832 189.79234375 174.56860352 189.4921875 C218.63405598 163.70667604 218.63405598 163.70667604 240.37890625 168.03515625 C249.50312606 170.96658153 255.11948066 176.05037264 259.5 184.5 C266.91842637 200.06454579 263.26582532 218.1360316 257.99951172 233.8125 C255.61547203 240.33227085 252.51743418 246.36612428 249.0625 252.375 C248.50820313 253.34308594 247.95390625 254.31117188 247.3828125 255.30859375 C234.62033406 276.34531061 217.00662755 292.69166974 196.8125 306.4375 C196.20647949 306.85797607 195.60045898 307.27845215 194.97607422 307.71166992 C191.49638703 310.04274442 188.13590255 311.81263072 184.21875 313.30859375 C179.26219839 315.30964643 174.59874458 317.23513504 171.0625 321.375 C168.75223679 327.29686984 168.82234616 333.67505272 168.5390625 339.953125 C168.1719816 347.96879796 166.58794441 355.5380402 164.75 363.3125 C164.59625916 363.97384949 164.44251831 364.63519897 164.28411865 365.31658936 C161.92248877 375.43648542 159.18491876 385.36739083 155.80517578 395.19238281 C155.00834763 397.53414603 154.24956449 399.88613349 153.49609375 402.2421875 C152.97701484 403.84910452 152.45749789 405.45588012 151.9375 407.0625 C151.70796631 407.78155518 151.47843262 408.50061035 151.24194336 409.24145508 C149.60290541 414.20864254 147.46711674 418.73785595 145.0625 423.375 C144.46177874 424.61247287 143.86535228 425.85204068 143.2734375 427.09375 C136.9034178 440.28545339 129.63978465 453.21795706 120.0625 464.375 C119.24136719 465.34050781 118.42023438 466.30601562 117.57421875 467.30078125 C107.27244091 479.1281998 94.91108714 488.80039596 79.0625 491.375 C70.14044184 491.66826613 63.27739737 490.14903647 56.59765625 484.16796875 C51.95689221 479.62490501 47.60514841 474.85023139 43.4375 469.87109375 C42.11322456 468.25206069 42.11322456 468.25206069 40.0625 467.375 C31.95608692 467.3170379 26.73686826 470.45634331 19.98580933 474.71810913 C17.02831774 476.58274469 14.03727635 478.39190535 11.046875 480.203125 C10.4524913 480.56439987 9.8581076 480.92567474 9.24571228 481.29789734 C1.83060447 485.77302043 -5.89535498 489.57612926 -13.70849609 493.29663086 C-16.13115269 494.46868718 -18.52243286 495.69542908 -20.91796875 496.921875 C-27.94075467 500.44105826 -35.27079674 503.00496142 -42.68066406 505.57910156 C-44.59895871 506.25560963 -46.5008142 506.97844634 -48.3984375 507.7109375 C-62.20106542 512.51629685 -80.98285613 513.32230921 -94.34765625 506.91796875 C-105.22850675 500.43541076 -111.34584125 492.9221797 -115.13671875 480.76953125 C-116.36358044 475.56883461 -116.88090517 470.3568782 -117.34765625 465.0390625 C-117.95994881 461.23554979 -118.8887662 458.62742632 -120.9375 455.375 C-127.23441463 453.27602846 -133.12934659 454.67247201 -139.375 456.1875 C-140.97222513 456.5565583 -142.56989198 456.92370953 -144.16796875 457.2890625 C-144.96638184 457.47243164 -145.76479492 457.65580078 -146.58740234 457.84472656 C-176.8967142 464.68368619 -214.09176924 466.93595497 -241.77685547 450.26757812 C-252.39400819 443.41997844 -261.11706813 435.54546169 -268.0625 424.9375 C-268.66735229 424.01372559 -268.66735229 424.01372559 -269.28442383 423.07128906 C-270.23833161 421.54724169 -271.09732365 419.96457987 -271.9375 418.375 C-270.4171468 415.3342936 -267.99253265 414.85739586 -264.9375 413.4375 C-250.47035846 406.42786131 -237.69662272 397.29314522 -225.9375 386.375 C-225.19161621 385.68688232 -225.19161621 385.68688232 -224.43066406 384.98486328 C-213.33013767 374.63356651 -204.25051649 362.66815375 -196.9375 349.375 C-196.59396484 348.75077148 -196.25042969 348.12654297 -195.89648438 347.48339844 C-184.26074315 325.79667417 -176.83527793 300.85742893 -172.37988281 276.73095703 C-171.98389103 274.62206038 -171.5472552 272.52897003 -171.0859375 270.43359375 C-164.65154865 239.78900445 -164.26208768 207.44861965 -163.49313354 176.23339844 C-162.23624254 125.77573993 -151.49057374 79.40028469 -114.01171875 43.09765625 C-82.6795012 14.65636352 -42.03231597 -0.11140733 0 0 Z " fill="#073757" transform="translate(746.9375,100.625)"/>
<path d="M0 0 C1.19818359 -0.01224609 2.39636719 -0.02449219 3.63085938 -0.03710938 C11.01776408 -0.04918606 17.85542823 0.59013355 25.0625 2.1875 C25.78477783 2.33356689 26.50705566 2.47963379 27.2512207 2.63012695 C43.8314781 6.01437894 58.38740505 11.94555196 73.15283203 20.13867188 C74.88880234 21.09210175 76.64465224 22.00910888 78.40234375 22.921875 C83.4242614 25.53731668 87.18954274 27.98257497 91.0625 32.1875 C92.01125 32.785625 92.96 33.38375 93.9375 34 C98.05343745 36.88115622 100.85659181 40.35021792 104.0625 44.1875 C105.33673828 45.61449219 105.33673828 45.61449219 106.63671875 47.0703125 C136.87356207 81.13480706 144.41362474 128.15509564 147.0625 172.1875 C147.10346802 172.8284964 147.14443604 173.4694928 147.18664551 174.12991333 C148.03983899 187.62765851 148.30470057 201.1018492 148.3125 214.625 C148.31317474 215.69131653 148.31384949 216.75763306 148.31454468 217.85626221 C148.26975868 262.8289356 143.41109863 309.07094687 130.61474609 352.30273438 C129.78675943 355.12857747 129.01835171 357.96995939 128.25 360.8125 C128.01667969 361.67101562 127.78335937 362.52953125 127.54296875 363.4140625 C127.38441406 363.99929688 127.22585938 364.58453125 127.0625 365.1875 C126.4025 365.1875 125.7425 365.1875 125.0625 365.1875 C124.90394531 365.92613281 124.74539063 366.66476562 124.58203125 367.42578125 C122.8719222 374.86144878 120.39097351 381.34563779 117.0625 388.1875 C115.95436092 390.58149857 114.85021964 392.97735154 113.75 395.375 C112.8544864 397.3126478 111.95876987 399.2502019 111.0625 401.1875 C110.4025 401.1875 109.7425 401.1875 109.0625 401.1875 C108.98128906 401.88488281 108.90007812 402.58226562 108.81640625 403.30078125 C107.25216982 409.29026685 102.70664036 414.24733271 99.0625 419.1875 C98.42957031 420.04988281 97.79664063 420.91226562 97.14453125 421.80078125 C93.18060089 426.96487816 88.80360171 431.67079654 84.25 436.3125 C83.68635742 436.89386719 83.12271484 437.47523438 82.54199219 438.07421875 C78.4212773 442.1875 78.4212773 442.1875 75.0625 442.1875 C73.77282913 437.06862118 74.54619207 433.26577193 76.1875 428.375 C76.53047119 427.31333618 76.53047119 427.31333618 76.88037109 426.23022461 C78.44754785 421.55390218 80.39875112 417.39124426 82.9453125 413.16015625 C84.91190122 409.68768317 85.93579454 405.9988912 87.0625 402.1875 C87.46903626 400.90202205 87.87668742 399.61689642 88.28515625 398.33203125 C93.92195538 380.30875389 95.31840452 363.06701906 92.8125 344.375 C92.70333252 343.52800537 92.59416504 342.68101074 92.48168945 341.80834961 C91.51215379 335.25810309 89.50263264 329.33103922 87.0625 323.1875 C87.08868408 324.0125 87.11486816 324.8375 87.1418457 325.6875 C87.80424716 349.72848048 86.73995335 367.74289523 69.4375 386.4375 C54.99888968 400.13004231 35.62021485 406.13420922 16.0625 406.1875 C15.82015625 407.033125 15.5778125 407.87875 15.328125 408.75 C14.99296875 409.884375 14.6578125 411.01875 14.3125 412.1875 C13.98765625 413.30125 13.6628125 414.415 13.328125 415.5625 C12.91046875 416.75875 12.4928125 417.955 12.0625 419.1875 C11.73596436 420.15937256 11.73596436 420.15937256 11.40283203 421.15087891 C8.65794939 427.91546417 3.48122032 430.85675033 -2.5625 434.5625 C-4.10260742 435.53304321 -4.10260742 435.53304321 -5.67382812 436.52319336 C-27.66751392 450.25900784 -52.97461256 465.38688961 -79.9375 463.1875 C-85.18423825 461.47038567 -87.37704368 459.03407803 -89.9375 454.1875 C-91.6035535 449.09678099 -92.19151391 444.12835502 -92.8125 438.8125 C-94.36748531 427.01565658 -97.96285289 419.24847204 -106.9375 411.1875 C-117.34963981 404.25217313 -130.71499238 405.03321093 -142.57315063 407.23886108 C-146.22740938 407.98409279 -149.86456834 408.79333886 -153.5 409.625 C-155.72775944 410.11830519 -157.95654965 410.60654459 -160.1860199 411.09205627 C-162.18524923 411.52987142 -164.18172694 411.98019844 -166.17797852 412.43139648 C-188.59926286 416.94069693 -213.24847038 415.55037906 -232.9375 403.1875 C-231.60776574 399.19829722 -229.83851823 398.61843983 -226.3125 396.375 C-210.86803271 386.14011369 -198.1274423 372.10902619 -187.56542969 357.01196289 C-186.40202492 355.370293 -185.17501225 353.77405416 -183.9375 352.1875 C-183.2775 352.1875 -182.6175 352.1875 -181.9375 352.1875 C-181.66292969 351.45402344 -181.38835938 350.72054688 -181.10546875 349.96484375 C-180.00742961 347.35378746 -178.76119804 345.13893499 -177.25 342.75 C-172.48471163 334.9522554 -168.21176898 326.72398697 -164.9375 318.1875 C-164.463125 316.97578125 -163.98875 315.7640625 -163.5 314.515625 C-159.84274014 305.0420959 -159.84274014 305.0420959 -157.36328125 295.2109375 C-156.25838322 289.9601377 -154.41427829 284.93821698 -151.9375 280.1875 C-151.6075 280.1875 -151.2775 280.1875 -150.9375 280.1875 C-150.30970378 309.7325559 -150.30970378 309.7325559 -153.9375 322.1875 C-154.26621094 323.363125 -154.59492187 324.53875 -154.93359375 325.75 C-159.24345898 339.82789888 -165.57829544 355.65053039 -174.9375 367.1875 C-175.5975 367.1875 -176.2575 367.1875 -176.9375 367.1875 C-176.9375 368.1775 -176.9375 369.1675 -176.9375 370.1875 C-177.5975 370.1875 -178.2575 370.1875 -178.9375 370.1875 C-179.5975 371.8375 -180.2575 373.4875 -180.9375 375.1875 C-181.5975 375.1875 -182.2575 375.1875 -182.9375 375.1875 C-183.5975 376.8375 -184.2575 378.4875 -184.9375 380.1875 C-185.5975 380.1875 -186.2575 380.1875 -186.9375 380.1875 C-187.2675 381.1775 -187.5975 382.1675 -187.9375 383.1875 C-189.5390625 384.73046875 -189.5390625 384.73046875 -191.5625 386.375 C-195.80903297 389.96232388 -199.38987791 393.91926717 -202.9375 398.1875 C-201.9475 398.5175 -200.9575 398.8475 -199.9375 399.1875 C-199.6075 399.8475 -199.2775 400.5075 -198.9375 401.1875 C-198.26203125 401.17589844 -197.5865625 401.16429687 -196.890625 401.15234375 C-195.99859375 401.14332031 -195.1065625 401.13429688 -194.1875 401.125 C-193.30578125 401.11339844 -192.4240625 401.10179687 -191.515625 401.08984375 C-188.9375 401.1875 -188.9375 401.1875 -186.83203125 401.71484375 C-184.22379303 402.36555885 -181.88482375 401.88775074 -179.2578125 401.5 C-176.75634941 401.16310261 -174.26767669 400.98866397 -171.75 400.8125 C-166.48612426 400.34910516 -161.50951912 399.25133341 -156.37890625 398.015625 C-137.5691274 393.4893218 -118.4890051 389.7179269 -100.6875 399.453125 C-90.49251328 405.88291776 -84.2422441 416.38259627 -81.21728516 427.93896484 C-80.02507527 433.35385202 -79.08777398 438.80029107 -78.29125977 444.28662109 C-78.01342997 446.26565555 -78.01342997 446.26565555 -76.9375 448.1875 C-62.5539173 448.87607577 -50.96697826 444.7038392 -37.9375 439.1875 C-37.31633301 438.92622314 -36.69516602 438.66494629 -36.05517578 438.39575195 C-29.42295752 435.58779165 -24.20474087 432.53669099 -18.89453125 427.75390625 C-16.6555633 425.96183809 -14.31815943 424.64203302 -11.8125 423.25 C-2.53113958 417.75981555 0.19793146 409.33468318 3.0625 399.1875 C3.4959091 396.52086267 3.79081023 393.87781938 4.0625 391.1875 C5.22523438 391.17332031 6.38796875 391.15914062 7.5859375 391.14453125 C26.20344205 390.68566291 45.04693802 387.02256991 59.0625 373.8125 C62.93616031 369.61308398 65.74313345 365.39754765 68.0625 360.1875 C68.454375 359.41019531 68.84625 358.63289063 69.25 357.83203125 C74.30831597 345.941476 74.65240855 328.33880963 70.125 316.25 C68.75462572 313.58732295 68.75462572 313.58732295 67.0625 311.1875 C66.50046875 310.34960938 65.9384375 309.51171875 65.359375 308.6484375 C54.97012103 295.43690588 37.46840533 288.83504978 22.71508789 281.90112305 C11.75992087 276.69638432 1.85065232 271.58032086 -5.1875 261.375 C-6.35787496 257.96140637 -6.48372411 254.7174733 -5.9375 251.1875 C-3.13213631 245.68467123 1.11903922 241.16865359 7.0625 239.1875 C9.96980598 239.06384604 12.84269458 239.00235029 15.75 239 C16.52794922 238.98775391 17.30589844 238.97550781 18.10742188 238.96289062 C36.5000062 238.91687081 53.09265681 249.04538942 67.0625 260.1875 C72.89094198 257.70813117 76.95542125 252.70436013 81.375 248.3125 C82.31923828 247.40113281 83.26347656 246.48976563 84.23632812 245.55078125 C85.56760742 244.23013672 85.56760742 244.23013672 86.92578125 242.8828125 C87.74344971 242.07859863 88.56111816 241.27438477 89.40356445 240.44580078 C91.28505075 238.36884256 91.28505075 238.36884256 91.00415039 236.06274414 C89.3086529 232.68625563 86.16144589 230.69929743 83.1875 228.5 C82.48512207 227.97615723 81.78274414 227.45231445 81.05908203 226.91259766 C71.41840579 219.98118565 60.40431618 214.70237594 49.0625 211.1875 C49.70728081 204.84344974 51.02496331 198.8545882 52.625 192.6875 C52.85896484 191.7696875 53.09292969 190.851875 53.33398438 189.90625 C53.90583715 187.66552077 54.48208293 185.42602312 55.0625 183.1875 C53.73025391 183.01927734 53.73025391 183.01927734 52.37109375 182.84765625 C46.57813808 182.02009115 40.85774679 180.78849665 35.125 179.625 C33.96419922 179.39103516 32.80339844 179.15707031 31.60742188 178.91601562 C28.75875637 178.34159336 25.91046743 177.76537154 23.0625 177.1875 C22.88291748 178.33460449 22.88291748 178.33460449 22.69970703 179.50488281 C21.69809189 185.73176807 20.53943234 191.83829095 18.9375 197.9375 C18.75574219 198.64648438 18.57398438 199.35546875 18.38671875 200.0859375 C17.94980101 201.7876171 17.50685181 203.48774647 17.0625 205.1875 C15.48275391 205.22617187 15.48275391 205.22617187 13.87109375 205.265625 C-5.38326954 205.93778549 -22.32895209 210.65334332 -36.35546875 224.41796875 C-39.51960104 227.81187162 -41.77511894 231.09442157 -43.9375 235.1875 C-59.79408094 230.4668385 -74.79749984 218.38095484 -82.7265625 203.8203125 C-85.07508337 198.71417358 -87.0616234 193.48311624 -88.9375 188.1875 C-89.96720262 206.18822721 -85.20403978 224.01267771 -73.9375 238.1875 C-73.41542969 238.87328125 -72.89335938 239.5590625 -72.35546875 240.265625 C-65.05901383 249.28411429 -55.4881177 255.09084226 -45.3190918 260.30200195 C-36.87578812 264.67867228 -28.7709502 270.1457335 -24.9375 279.1875 C-24.11357594 285.35734993 -24.43416945 291.04267025 -27.62109375 296.47265625 C-32.15317249 302.37646208 -38.75812303 304.98786117 -45.9375 306.1875 C-55.04174462 306.95713717 -63.63107465 306.36394031 -72.5625 304.4375 C-73.29597656 304.28079834 -74.02945313 304.12409668 -74.78515625 303.96264648 C-79.77708494 302.76790392 -83.55359756 300.84751081 -87.9375 298.1875 C-89.90353901 297.24300591 -91.88184766 296.32334548 -93.875 295.4375 C-94.83277344 295.00953125 -95.79054688 294.5815625 -96.77734375 294.140625 C-97.49019531 293.82609375 -98.20304688 293.5115625 -98.9375 293.1875 C-98.9375 292.5275 -98.9375 291.8675 -98.9375 291.1875 C-99.845 290.89875 -100.7525 290.61 -101.6875 290.3125 C-108.56540698 287.93168605 -108.56540698 287.93168605 -109.9375 285.1875 C-110.515 284.919375 -111.0925 284.65125 -111.6875 284.375 C-120.72453376 279.60545441 -130.29629974 267.24350051 -134.9375 258.1875 C-134.9375 257.1975 -134.9375 256.2075 -134.9375 255.1875 C-135.5975 254.8575 -136.2575 254.5275 -136.9375 254.1875 C-145.67746681 239.57536799 -145.29993631 223.3184188 -142.48828125 206.99609375 C-140.35899537 193.37025226 -140.22425665 179.64139763 -139.92095947 165.8817749 C-138.7338148 112.4318866 -138.7338148 112.4318866 -134.25 97.75 C-133.98944824 96.85152344 -133.72889648 95.95304687 -133.46044922 95.02734375 C-128.20648471 77.53696752 -119.96667673 60.99877698 -107.9375 47.1875 C-107.20015625 46.30578125 -106.4628125 45.4240625 -105.703125 44.515625 C-87.25082262 23.16884382 -61.25432636 9.30465661 -33.9375 3.1875 C-33.01453125 2.97480469 -32.0915625 2.76210937 -31.140625 2.54296875 C-20.81658882 0.31464417 -10.53382282 0.00564816 0 0 Z " fill="#95E496" transform="translate(750.9375,122.8125)"/>
<path d="M0 0 C2.94270795 2.89638719 5.5223999 5.86797446 8.0625 9.125 C25.24586684 30.17042648 52.53153619 45.39007033 79.54150391 48.76855469 C98.47228801 50.55071788 118.71069083 50.06034454 135 39 C137.95496221 36.19645666 140.54594807 33.24800991 143 30 C157.35312363 34.38245616 174.04165445 41.48710101 182.07421875 54.77734375 C183.95036127 59.28166903 183.50571701 64.22449508 183 69 C180.55382179 74.47943918 177.24553233 76.51527416 172 79 C155.20618818 83.17064863 138.33804287 77.30365223 123.79394531 69.11279297 C121.0372276 67.40278762 118.57443741 65.35913424 116.0625 63.3125 C112.7675826 60.67391933 112.7675826 60.67391933 108.78515625 60.02734375 C106.39634027 60.82649557 104.25429479 61.87647687 102 63 C93.32421507 66.14865301 85.22335949 67.69808971 76 68 C88.03674523 86.53890986 104.16349454 96.30787154 124 105 C123.55436131 115.91814783 121.13059815 126.31049892 116 136 C124.91528674 138.14627273 133.95324185 139.53612328 143 141 C133.73352436 148 133.73352436 148 131 148 C130.75378906 148.6084375 130.50757813 149.216875 130.25390625 149.84375 C126.81683888 155.754221 117.11467965 158.44393746 111 161 C109.24236328 161.74830078 109.24236328 161.74830078 107.44921875 162.51171875 C96.72952822 167.00267619 85.82466209 170.74002148 74 169 C72.06130193 166.0919529 71.67156293 164.98228901 71.2109375 161.67578125 C69.11063206 148.10359474 65.99649459 132.86346811 55.02734375 123.38671875 C39.15368516 112.52901393 22.90189113 113.10413059 4.73217773 116.40771484 C-3.50792232 117.9591907 -3.50792232 117.9591907 -11.609375 120.09375 C-15.52033817 121.13907656 -19.16045471 121.40746821 -23.1875 121.5625 C-27.2423794 121.73847353 -31.0563123 122.00093245 -35 123 C-37.01190795 122.77645467 -39.02423185 122.54985498 -41.02734375 122.2578125 C-43.36433152 121.9523844 -45.64624154 121.92644505 -48 122 C-48.33 121.01 -48.66 120.02 -49 119 C-51.01508358 118.26676204 -51.01508358 118.26676204 -53 118 C-48.4178035 112.74242307 -43.88888314 107.7236576 -38.4921875 103.296875 C-36.34094906 101.42721227 -34.69636476 99.28131813 -33 97 C-32.278125 96.113125 -31.55625 95.22625 -30.8125 94.3125 C-28.98909965 92.14467733 -28.98909965 92.14467733 -28 90 C-27.34 90 -26.68 90 -26 90 C-26 89.01 -26 88.02 -26 87 C-25.34 87 -24.68 87 -24 87 C-23.74605469 86.30519531 -23.49210938 85.61039062 -23.23046875 84.89453125 C-21.8438605 81.6327004 -20.13187719 78.72932709 -18.3125 75.6875 C-6.82977507 55.90979953 -1.16837561 35.91134914 -0.4375 13.0625 C-0.37272461 11.17821289 -0.37272461 11.17821289 -0.30664062 9.25585938 C-0.20106381 6.17067032 -0.09895449 3.08540737 0 0 Z " fill="#096ABA" transform="translate(600,403)"/>
<path d="M0 0 C1.19818359 -0.01224609 2.39636719 -0.02449219 3.63085938 -0.03710938 C11.01776408 -0.04918606 17.85542823 0.59013355 25.0625 2.1875 C25.78477783 2.33356689 26.50705566 2.47963379 27.2512207 2.63012695 C43.8314781 6.01437894 58.38740505 11.94555196 73.15283203 20.13867188 C74.88880234 21.09210175 76.64465224 22.00910888 78.40234375 22.921875 C83.4242614 25.53731668 87.18954274 27.98257497 91.0625 32.1875 C92.01125 32.785625 92.96 33.38375 93.9375 34 C98.05343745 36.88115622 100.85659181 40.35021792 104.0625 44.1875 C105.33673828 45.61449219 105.33673828 45.61449219 106.63671875 47.0703125 C136.87356207 81.13480706 144.41362474 128.15509564 147.0625 172.1875 C147.10346802 172.8284964 147.14443604 173.4694928 147.18664551 174.12991333 C148.03983899 187.62765851 148.30470057 201.1018492 148.3125 214.625 C148.31317474 215.69131653 148.31384949 216.75763306 148.31454468 217.85626221 C148.26975868 262.8289356 143.41109863 309.07094687 130.61474609 352.30273438 C129.78675943 355.12857747 129.01835171 357.96995939 128.25 360.8125 C128.01667969 361.67101562 127.78335937 362.52953125 127.54296875 363.4140625 C127.38441406 363.99929688 127.22585938 364.58453125 127.0625 365.1875 C126.4025 365.1875 125.7425 365.1875 125.0625 365.1875 C124.90394531 365.92613281 124.74539063 366.66476562 124.58203125 367.42578125 C122.8719222 374.86144878 120.39097351 381.34563779 117.0625 388.1875 C115.95436092 390.58149857 114.85021964 392.97735154 113.75 395.375 C112.8544864 397.3126478 111.95876987 399.2502019 111.0625 401.1875 C110.4025 401.1875 109.7425 401.1875 109.0625 401.1875 C108.94068359 402.23357422 108.94068359 402.23357422 108.81640625 403.30078125 C107.25216982 409.29026685 102.70664036 414.24733271 99.0625 419.1875 C98.42957031 420.04988281 97.79664063 420.91226562 97.14453125 421.80078125 C93.18060089 426.96487816 88.80360171 431.67079654 84.25 436.3125 C83.68635742 436.89386719 83.12271484 437.47523438 82.54199219 438.07421875 C78.4212773 442.1875 78.4212773 442.1875 75.0625 442.1875 C73.76751286 437.05551391 74.54889668 433.21959707 76.1875 428.3125 C76.41542236 427.60867188 76.64334473 426.90484375 76.87817383 426.1796875 C78.63263205 420.97950944 80.68936888 416.56345389 84.0625 412.1875 C84.7225 412.1875 85.3825 412.1875 86.0625 412.1875 C86.46662109 411.31931641 86.46662109 411.31931641 86.87890625 410.43359375 C88.07678933 408.16038328 89.44423258 406.29265796 91 404.25 C114.62261491 370.60864613 123.64660538 328.24893565 128.07495117 288.11767578 C128.17783447 287.23063965 128.28071777 286.34360352 128.38671875 285.4296875 C128.5117981 284.26735596 128.5117981 284.26735596 128.6394043 283.08154297 C129.0625 281.1875 129.0625 281.1875 131.0625 279.1875 C131.35281146 276.35550513 131.52762705 273.60545447 131.62109375 270.765625 C131.69468501 269.02797505 131.76875459 267.2903453 131.84326172 265.55273438 C131.87861023 264.66062256 131.91395874 263.76851074 131.95037842 262.84936523 C132.12321667 258.74603265 132.36190577 254.64698408 132.59765625 250.546875 C132.68603524 248.94533938 132.77392475 247.34377666 132.86132812 245.7421875 C132.99304357 243.33157406 133.1259344 240.92106124 133.26293945 238.51074219 C134.75457783 212.19643958 133.730232 186.0046816 131.625 159.75 C131.56355804 158.96880798 131.50211609 158.18761597 131.43881226 157.38275146 C129.85811389 137.49816843 126.82585797 117.86019402 120.3125 98.9375 C119.0625 95.1875 119.0625 95.1875 119.0625 92.1875 C118.4025 92.1875 117.7425 92.1875 117.0625 92.1875 C116.485 91.053125 115.9075 89.91875 115.3125 88.75 C113.74457702 85.86155572 113.74457702 85.86155572 110.9375 84.3125 C110.31875 84.27125 109.7 84.23 109.0625 84.1875 C107.0625 83.1875 107.0625 83.1875 105.9375 81.0625 C103.74307758 77.69771896 101.18056247 75.5942409 98.125 73.02734375 C95.59811194 70.77324474 93.49603257 68.30914393 91.38671875 65.66796875 C89.93732394 63.92323635 89.93732394 63.92323635 87.0625 62.1875 C87.0625 61.5275 87.0625 60.8675 87.0625 60.1875 C86.47597656 59.92195313 85.88945313 59.65640625 85.28515625 59.3828125 C83.00054849 58.15418337 81.39627641 56.82362064 79.5 55.0625 C72.61017204 48.90263523 64.97592051 43.69522743 57.2578125 38.6328125 C55.72189173 37.62161911 54.19661526 36.59415603 52.6796875 35.5546875 C51.89851562 35.02101562 51.11734375 34.48734375 50.3125 33.9375 C49.61640625 33.45796875 48.9203125 32.9784375 48.203125 32.484375 C46.03743924 31.08767116 46.03743924 31.08767116 43.35546875 30.13671875 C41.0625 29.1875 41.0625 29.1875 40.125 27.25 C40.0625 25.1875 40.0625 25.1875 42.0625 22.1875 C40.7425 21.8575 39.4225 21.5275 38.0625 21.1875 C38.0625 20.5275 38.0625 19.8675 38.0625 19.1875 C34.73186776 18.50696216 31.39761632 17.84569383 28.0625 17.1875 C26.79535156 16.93484375 25.52820313 16.6821875 24.22265625 16.421875 C5.47573647 12.74379613 -23.96249121 7.87082747 -40.9375 19.1875 C-43.17703097 19.92826794 -45.42917047 20.63118961 -47.6875 21.3125 C-65.23177831 26.93180084 -79.7589864 37.44536103 -92.9375 50.1875 C-94.04351563 51.25484375 -94.04351563 51.25484375 -95.171875 52.34375 C-102.54141067 59.97461672 -107.70612184 69.02979964 -112.9375 78.1875 C-113.72833984 79.56615234 -113.72833984 79.56615234 -114.53515625 80.97265625 C-128.85902396 107.82415103 -128.73936444 139.41733743 -129.59619141 169.08007812 C-129.76633062 174.75138523 -130.11062177 180.33917701 -130.72583008 185.97924805 C-131.00866659 188.92994733 -131.03444804 191.84996814 -131 194.8125 C-130.99097656 195.83601562 -130.98195313 196.85953125 -130.97265625 197.9140625 C-130.96105469 198.66429687 -130.94945312 199.41453125 -130.9375 200.1875 C-129.9475 199.1975 -128.9575 198.2075 -127.9375 197.1875 C-127.84774902 197.80979492 -127.75799805 198.43208984 -127.66552734 199.07324219 C-123.60180627 226.65391446 -116.63375641 252.10712229 -98.9375 274.1875 C-98.46940918 274.77901855 -98.00131836 275.37053711 -97.51904297 275.97998047 C-91.37192862 283.67671843 -84.97867406 290.22019415 -77.140625 296.19921875 C-76.41359375 296.85535156 -75.6865625 297.51148438 -74.9375 298.1875 C-74.9375 299.1775 -74.9375 300.1675 -74.9375 301.1875 C-83.98938533 301.02869499 -91.01543733 297.18506258 -98.9375 293.1875 C-98.9375 292.5275 -98.9375 291.8675 -98.9375 291.1875 C-99.845 290.89875 -100.7525 290.61 -101.6875 290.3125 C-108.56540698 287.93168605 -108.56540698 287.93168605 -109.9375 285.1875 C-110.515 284.919375 -111.0925 284.65125 -111.6875 284.375 C-120.72453376 279.60545441 -130.29629974 267.24350051 -134.9375 258.1875 C-134.9375 257.1975 -134.9375 256.2075 -134.9375 255.1875 C-135.5975 254.8575 -136.2575 254.5275 -136.9375 254.1875 C-145.67746681 239.57536799 -145.29993631 223.3184188 -142.48828125 206.99609375 C-140.35899537 193.37025226 -140.22425665 179.64139763 -139.92095947 165.8817749 C-138.7338148 112.4318866 -138.7338148 112.4318866 -134.25 97.75 C-133.98944824 96.85152344 -133.72889648 95.95304687 -133.46044922 95.02734375 C-128.20648471 77.53696752 -119.96667673 60.99877698 -107.9375 47.1875 C-107.20015625 46.30578125 -106.4628125 45.4240625 -105.703125 44.515625 C-87.25082262 23.16884382 -61.25432636 9.30465661 -33.9375 3.1875 C-33.01453125 2.97480469 -32.0915625 2.76210937 -31.140625 2.54296875 C-20.81658882 0.31464417 -10.53382282 0.00564816 0 0 Z " fill="#8BD2C1" transform="translate(750.9375,122.8125)"/>
<path d="M0 0 C-2.59810962 1.73207308 -4.36716974 2.51944549 -7.25 3.5 C-28.66271859 11.95238892 -42.74373993 29.51305085 -52.09960938 49.91113281 C-54.49207096 55.46153989 -56.28478611 61.2094911 -58 67 C-58.350625 68.134375 -58.70125 69.26875 -59.0625 70.4375 C-61.97306077 81.49763091 -62.17869651 93.12676879 -62.1875 104.5 C-62.18830566 105.48991943 -62.18911133 106.47983887 -62.18994141 107.49975586 C-62.1344333 114.84224415 -61.66756036 122.06881121 -60.4375 129.3125 C-60.01180704 131.92747103 -59.92224159 134.35621414 -60 137 C-59.34 137.33 -58.68 137.66 -58 138 C-57.65048379 139.99723547 -57.32173372 141.99810127 -57 144 C-56.1948697 147.07651416 -55.12076335 150.02518577 -54 153 C-53.56042969 154.16789063 -53.12085938 155.33578125 -52.66796875 156.5390625 C-45.52595728 174.53095899 -33.57558582 190.19891798 -18.3203125 202.0546875 C-15.7349627 204.22220299 -14.13200702 205.81193679 -13.75 209.25 C-14.05975144 212.65726581 -15.03147714 215.72547032 -16 219 C-36.76328266 209.28290186 -51.07044843 196.40563416 -59.1171875 174.4921875 C-59.55417969 173.25855469 -59.55417969 173.25855469 -60 172 C-61.02970262 190.00072721 -56.26653978 207.82517771 -45 222 C-44.47792969 222.68578125 -43.95585938 223.3715625 -43.41796875 224.078125 C-36.12151383 233.09661429 -26.5506177 238.90334226 -16.3815918 244.11450195 C-7.93828812 248.49117228 0.1665498 253.9582335 4 263 C4.82392406 269.16984993 4.50333055 274.85517025 1.31640625 280.28515625 C-3.21567249 286.18896208 -9.82062303 288.80036117 -17 290 C-29.03648729 291.01751748 -40.44568547 289.49821236 -52 286 C-52.66 285.34 -53.32 284.68 -54 284 C-51.36 284.33 -48.72 284.66 -46 285 C-47.25092864 281.24721408 -48.74857418 280.4405321 -51.875 278.0625 C-67.67249447 265.39180586 -78.62401194 249.26823473 -87 231 C-87.47179687 230.00613281 -87.94359375 229.01226562 -88.4296875 227.98828125 C-94.79296703 213.81911535 -97.59728201 198.25628253 -100 183 C-100.99 183.99 -101.98 184.98 -103 186 C-103.02755664 183.87507655 -103.04664147 181.75004295 -103.0625 179.625 C-103.07410156 178.44164062 -103.08570313 177.25828125 -103.09765625 176.0390625 C-103.07249355 173.11564484 -102.84349546 170.26458164 -102.52294922 167.35913086 C-102.00349927 162.31253451 -101.73113092 157.28297398 -101.53515625 152.21484375 C-101.45657748 150.36522598 -101.37779483 148.51561687 -101.29882812 146.66601562 C-101.18011835 143.81234957 -101.06333621 140.95863851 -100.95043945 138.10473633 C-100.46509199 125.97104974 -99.57623011 114.04243097 -98 102 C-97.77066494 99.87501817 -97.54146635 97.75002159 -97.3125 95.625 C-93.32972027 70.63070516 -78.66517757 47.56494961 -61 30 C-60.26265625 29.26265625 -59.5253125 28.5253125 -58.765625 27.765625 C-44.76233991 14.60464277 -20.10357969 -1.29069675 0 0 Z " fill="#41BCB1" transform="translate(722,139)"/>
<path d="M0 0 C1.44596558 0.00713013 1.44596558 0.00713013 2.92114258 0.0144043 C11.66828689 0.26558545 18.27715705 2.33244423 24.98828125 8.19921875 C26.1875 9.625 26.1875 9.625 26.1875 11.625 C26.8475 11.625 27.5075 11.625 28.1875 11.625 C28.1875 8.325 28.1875 5.025 28.1875 1.625 C35.7775 1.625 43.3675 1.625 51.1875 1.625 C51.27824545 12.2223235 51.35147093 22.81938454 51.39474869 33.41701031 C51.41553075 38.33910873 51.44367482 43.26092515 51.48925781 48.18286133 C51.53305294 52.94209842 51.55670745 57.70106605 51.56700897 62.46048927 C51.57434041 64.26678515 51.58865517 66.07306804 51.61042023 67.87924767 C51.76683627 81.41048726 51.36782874 93.99880221 42.015625 104.765625 C34.12039287 112.79581836 22.44499755 117.29810352 11.1875 117.625 C10.19878906 117.686875 9.21007812 117.74875 8.19140625 117.8125 C-6.99287494 118.36402894 -19.98649777 114.56596834 -32.8125 106.625 C-32.21278421 102.30704632 -30.6654933 99.14026887 -28.5 95.375 C-27.90574219 94.31796875 -27.31148438 93.2609375 -26.69921875 92.171875 C-24.8125 89.625 -24.8125 89.625 -22.76953125 88.66015625 C-19.99297502 88.61027799 -18.29248797 90.0175181 -15.98828125 91.43359375 C-6.4005091 96.68363056 3.16339386 98.24574087 13.625 95.1875 C15.15054026 94.68061905 16.67216595 94.16162288 18.1875 93.625 C19.1775 93.295 20.1675 92.965 21.1875 92.625 C22.32959817 90.84271064 22.32959817 90.84271064 23.1875 88.625 C23.70763672 87.51318359 23.70763672 87.51318359 24.23828125 86.37890625 C25.33568282 83.19508689 25.38629704 80.67026525 25.3125 77.3125 C25.29445313 76.24386719 25.27640625 75.17523437 25.2578125 74.07421875 C25.23460937 73.26597656 25.21140625 72.45773437 25.1875 71.625 C24.630625 72.02332031 24.07375 72.42164063 23.5 72.83203125 C12.93719127 80.16533258 3.88240875 81.92546903 -8.8125 80.625 C-19.00933379 78.55357548 -26.8258811 72.94788393 -32.6875 64.4375 C-38.81018299 53.9820599 -40.07338396 42.52013167 -38.8125 30.625 C-35.87779156 19.68882153 -29.63685574 10.40216557 -19.8125 4.625 C-13.19563831 0.98311494 -7.51699444 -0.08568052 0 0 Z " fill="#1C242B" transform="translate(399.8125,669.375)"/>
<path d="M0 0 C4.70912201 0.89862145 9.32439373 2.08371451 13.96484375 3.28125 C18.61788978 4.38312963 22.86190024 5.05394892 27.64453125 4.9296875 C41.20904972 4.68047405 41.20904972 4.68047405 46.02734375 8.23046875 C48.24297622 11.05355054 50.13175175 13.93837732 52 17 C62.29469714 29.51690049 77.47059679 36.63338268 92 43 C91.55436131 53.91814783 89.13059815 64.31049892 84 74 C92.91528674 76.14627273 101.95324185 77.53612328 111 79 C101.73352436 86 101.73352436 86 99 86 C98.63068359 86.91265625 98.63068359 86.91265625 98.25390625 87.84375 C94.81683888 93.754221 85.11467965 96.44393746 79 99 C77.24236328 99.74830078 77.24236328 99.74830078 75.44921875 100.51171875 C64.72952822 105.00267619 53.82466209 108.74002148 42 107 C40.06130193 104.0919529 39.67156293 102.98228901 39.2109375 99.67578125 C37.11063206 86.10359474 33.99649459 70.86346811 23.02734375 61.38671875 C7.15368516 50.52901393 -9.09810887 51.10413059 -27.26782227 54.40771484 C-35.50792232 55.9591907 -35.50792232 55.9591907 -43.609375 58.09375 C-47.52033817 59.13907656 -51.16045471 59.40746821 -55.1875 59.5625 C-59.2423794 59.73847353 -63.0563123 60.00093245 -67 61 C-69.01190795 60.77645467 -71.02423185 60.54985498 -73.02734375 60.2578125 C-75.36433152 59.9523844 -77.64624154 59.92644505 -80 60 C-80.33 59.34 -80.66 58.68 -81 58 C-80.40461426 57.98541748 -79.80922852 57.97083496 -79.19580078 57.95581055 C-76.50486949 57.88145656 -73.81519667 57.78475813 -71.125 57.6875 C-69.71927734 57.65366211 -69.71927734 57.65366211 -68.28515625 57.61914062 C-67.38925781 57.58369141 -66.49335937 57.54824219 -65.5703125 57.51171875 C-64.74289551 57.48553467 -63.91547852 57.45935059 -63.06298828 57.43237305 C-60.60672068 57.16903363 -60.60672068 57.16903363 -59 54 C-56.53641951 52.68822337 -54.09117709 51.48299074 -51.5625 50.3125 C-28.73350272 39.29573685 -13.3695542 20.95440486 0 0 Z " fill="#1D8CCA" transform="translate(632,465)"/>
<path d="M0 0 C8.25 0 16.5 0 25 0 C25 37.95 25 75.9 25 115 C17.08 115 9.16 115 1 115 C-1.04698414 112.95301586 -0.70045693 108.69588759 -1 106 C-1.40089844 106.38671875 -1.80179688 106.7734375 -2.21484375 107.171875 C-10.55494891 114.81224345 -19.53610843 117.46385304 -30.73828125 117.33984375 C-41.49988288 116.21857508 -49.01835187 110.26631374 -56.1875 102.6875 C-64.58015074 90.24322476 -65.63749798 77.44860878 -63.5390625 62.77734375 C-60.96745216 53.23213126 -54.88278659 45.75500543 -47 40 C-45.99453125 39.23623047 -45.99453125 39.23623047 -44.96875 38.45703125 C-39.19769571 34.82980171 -33.58232343 34.51486456 -26.9375 34.4375 C-26.09864258 34.42275635 -25.25978516 34.4080127 -24.39550781 34.39282227 C-14.15819673 34.56023619 -8.27880864 38.79089352 0 45 C0 30.15 0 15.3 0 0 Z " fill="#1B232A" transform="translate(1087,636)"/>
<path d="M0 0 C8.76862985 6.0731497 15.11519619 14.18128763 17.68359375 24.61328125 C19.4515808 38.11263037 17.44557725 50.16143266 9.55859375 61.48828125 C2.92422317 69.35123897 -6.6116307 74.19496335 -16.56640625 76.30078125 C-31.24774875 77.52422646 -43.46682767 75.98737183 -55.31640625 66.61328125 C-62.64382191 59.97550471 -67.55027029 51.5888536 -68.50927734 41.60546875 C-69.02634774 28.01748548 -68.15321603 17.91501932 -58.94140625 7.17578125 C-55.340204 3.47388749 -51.86941629 0.08733423 -47.31640625 -2.38671875 C-46.25679687 -2.97259766 -46.25679687 -2.97259766 -45.17578125 -3.5703125 C-30.95221453 -10.033537 -13.09005069 -7.83637098 0 0 Z " fill="#1C242B" transform="translate(619.31640625,676.38671875)"/>
<path d="M0 0 C8.25 0 16.5 0 25 0 C25.33 15.18 25.66 30.36 26 46 C28.97 43.36 31.94 40.72 35 38 C39.77608498 34.90995272 43.76905422 34.45071397 49.3125 34.5 C50.0657959 34.50644531 50.8190918 34.51289062 51.59521484 34.51953125 C60.10109083 34.79883416 65.08661356 37.72782928 70.875 43.875 C77.59923633 51.6387318 77.41058511 59.16634998 77.29296875 69.02734375 C77.28736523 70.38496937 77.2830987 71.7426011 77.28010559 73.10023499 C77.26871615 76.65297544 77.23930109 80.20534102 77.20599365 83.75793457 C77.17516443 87.39130585 77.16157296 91.02473841 77.14648438 94.65820312 C77.11442464 101.77230237 77.06170602 108.88608708 77 116 C69.08 116 61.16 116 53 116 C52.94392578 110.58207031 52.94392578 110.58207031 52.88671875 105.0546875 C52.84048461 101.54974369 52.78925766 98.04490587 52.73754883 94.54003906 C52.70433053 92.1074876 52.67628901 89.67485963 52.65356445 87.2421875 C52.61996242 83.74185642 52.56764166 80.24222445 52.51171875 76.7421875 C52.50532883 75.65759247 52.4989389 74.57299744 52.49235535 73.45553589 C52.38502628 67.92154994 52.1859619 63.74323014 49 59 C45.36999929 55.7970582 41.89004707 55.47729861 37.21484375 55.6484375 C32.85356271 56.34070433 30.15881407 58.63906519 27.36791992 61.91674805 C25.23861119 66.71614837 25.5187424 71.44959761 25.48828125 76.64453125 C25.47033005 77.7694548 25.45237885 78.89437836 25.43388367 80.0533905 C25.37978284 83.63972243 25.34588475 87.22592125 25.3125 90.8125 C25.27932683 93.24676331 25.24483718 95.68100906 25.20898438 98.11523438 C25.12158269 104.07684208 25.06150926 110.03784401 25 116 C16.75 116 8.5 116 0 116 C0 77.72 0 39.44 0 0 Z " fill="#1B232A" transform="translate(465,635)"/>
<path d="M0 0 C7.20195516 6.05022549 10.00253777 12.83964456 12.9296875 21.62109375 C12.9296875 27.56109375 12.9296875 33.50109375 12.9296875 39.62109375 C-5.2203125 39.62109375 -23.3703125 39.62109375 -42.0703125 39.62109375 C-38.50174326 49.72060467 -38.50174326 49.72060467 -30.76171875 54.69140625 C-22.04325329 57.7030097 -13.15130669 55.41902241 -5.0703125 51.62109375 C-4.0803125 50.96109375 -3.0903125 50.30109375 -2.0703125 49.62109375 C0.9922408 49.73499036 2.01696513 50.7017244 4.2890625 52.80078125 C5.07796875 53.69023438 5.866875 54.5796875 6.6796875 55.49609375 C7.47890625 56.38039063 8.278125 57.2646875 9.1015625 58.17578125 C10.9296875 60.62109375 10.9296875 60.62109375 10.9296875 63.62109375 C0.5929917 72.97334233 -13.91003049 74.95396316 -27.3125 74.8359375 C-39.22595665 74.15481472 -49.93961008 68.23111705 -58.0703125 59.62109375 C-66.24636699 48.7266049 -67.43218484 35.89701174 -66.0703125 22.62109375 C-63.73813634 12.65530684 -57.71490342 4.66372796 -49.44140625 -1.26171875 C-33.73060669 -10.95511818 -15.23325104 -11.1877906 0 0 Z " fill="#1D242B" transform="translate(911.0703125,678.37890625)"/>
<path d="M0 0 C6.67678067 4.75078624 11.62227865 10.46000056 14.25 18.3125 C14.49050903 21.19160461 14.49050903 21.19160461 14.47705078 24.38793945 C14.47689972 25.58880692 14.47674866 26.78967438 14.47659302 28.02693176 C14.46627045 29.31355209 14.45594788 30.60017242 14.4453125 31.92578125 C14.44157912 33.26384774 14.43873368 34.60191697 14.43673706 35.93998718 C14.42912616 39.44991699 14.40949982 42.95967945 14.3873291 46.46954346 C14.36681564 50.05584449 14.35772362 53.64217274 14.34765625 57.22851562 C14.32625127 64.2565858 14.29109007 71.28451762 14.25 78.3125 C6.33 78.3125 -1.59 78.3125 -9.75 78.3125 C-9.77578125 74.70054687 -9.8015625 71.08859375 -9.828125 67.3671875 C-9.8665566 63.86222599 -9.91171347 60.35741103 -9.95751953 56.85253906 C-9.98571451 54.41999325 -10.00693632 51.98735608 -10.02099609 49.5546875 C-10.04244508 46.05421218 -10.08910843 42.55483369 -10.140625 39.0546875 C-10.14185364 37.97009247 -10.14308228 36.88549744 -10.14434814 35.76803589 C-10.26224298 29.66598487 -10.60693475 25.92144833 -14.75 21.3125 C-19.22720882 18.32769412 -23.502823 18.58799439 -28.75 19.3125 C-33.21222332 21.29483284 -35.85705705 23.81872736 -37.75 28.3125 C-38.0740599 30.73367686 -38.0740599 30.73367686 -38.06884766 33.35644531 C-38.08871735 34.35718079 -38.10858704 35.35791626 -38.12905884 36.38897705 C-38.14061005 37.46202087 -38.15216125 38.5350647 -38.1640625 39.640625 C-38.18342865 40.74476746 -38.2027948 41.84890991 -38.2227478 42.98651123 C-38.28250892 46.51176233 -38.32891564 50.03704615 -38.375 53.5625 C-38.41318292 55.95313921 -38.45223483 58.34376471 -38.4921875 60.734375 C-38.58984256 66.59367851 -38.66944023 72.45283663 -38.75 78.3125 C-47 78.3125 -55.25 78.3125 -63.75 78.3125 C-63.75 52.2425 -63.75 26.1725 -63.75 -0.6875 C-55.83 -0.6875 -47.91 -0.6875 -39.75 -0.6875 C-39.42 2.9425 -39.09 6.5725 -38.75 10.3125 C-37.904375 9.24 -37.05875 8.1675 -36.1875 7.0625 C-28.06472199 -2.42367574 -11.4224631 -5.44763625 0 0 Z " fill="#1B232A" transform="translate(998.75,672.6875)"/>
<path d="M0 0 C3.15310161 2.75896391 3.91697364 4.84317967 4.30078125 9.03515625 C4.32569501 17.06569268 3.71721974 24.13091584 1 31.75 C0.63648438 32.78769531 0.27296875 33.82539063 -0.1015625 34.89453125 C-10.87407747 64.18882197 -29.16869504 82.22794592 -54.8125 98.9375 C-55.70171143 99.51794067 -55.70171143 99.51794067 -56.60888672 100.11010742 C-60.75302457 102.75 -60.75302457 102.75 -63 102.75 C-62.9285376 101.6455957 -62.8570752 100.54119141 -62.78344727 99.40332031 C-61.86892884 84.10080967 -61.88552775 68.8249504 -61.9375 53.5 C-61.94252924 50.89323003 -61.94708961 48.28645912 -61.95117188 45.6796875 C-61.96205493 39.36977054 -61.97867823 33.05988988 -62 26.75 C-61.06115967 26.36183105 -60.12231934 25.97366211 -59.1550293 25.57373047 C-57.89880688 25.04683288 -56.64271003 24.51963583 -55.38671875 23.9921875 C-54.77082886 23.73848389 -54.15493896 23.48478027 -53.52038574 23.22338867 C-46.07430632 20.08019677 -39.67456421 15.50721884 -33.23046875 10.671875 C-12.20867832 -5.0869493 -12.20867832 -5.0869493 0 0 Z " fill="#73DB93" transform="translate(983,289.25)"/>
<path d="M0 0 C0.92103516 -0.01224609 1.84207031 -0.02449219 2.79101562 -0.03710938 C10.51993054 -0.05356555 17.0154944 1.31471623 24.25 4.125 C25.51650391 4.60259766 25.51650391 4.60259766 26.80859375 5.08984375 C28.8125 6.1875 28.8125 6.1875 29.8125 9.1875 C28.74680618 11.5192497 27.64772353 13.66271409 26.375 15.875 C26.03662109 16.48150391 25.69824219 17.08800781 25.34960938 17.71289062 C24.51292085 19.2095025 23.66387169 20.69919189 22.8125 22.1875 C21.18683394 21.71059796 19.56198689 21.23090334 17.9375 20.75 C17.03257812 20.48316406 16.12765625 20.21632813 15.1953125 19.94140625 C12.8125 19.1875 12.8125 19.1875 10.8125 18.1875 C8.15061207 18.01081321 5.53868042 17.9101409 2.875 17.875 C1.78155273 17.83149414 1.78155273 17.83149414 0.66601562 17.78710938 C-2.63965164 17.74772012 -4.65443005 17.74713787 -7.25390625 19.89453125 C-8.45365504 22.84119459 -8.35678613 24.23759972 -7.1875 27.1875 C-5.45437874 28.4949077 -5.45437874 28.4949077 -3.125 29.1875 C-2.22910156 29.50847656 -1.33320312 29.82945312 -0.41015625 30.16015625 C1.97308702 30.91990532 4.35733018 31.65598173 6.75390625 32.37109375 C17.13430587 35.47155842 25.22694362 38.20719584 31.8125 47.1875 C34.48436431 52.53122862 33.53761761 60.52755637 32.01171875 66.125 C28.49029862 74.06332167 22.47531157 77.84182868 14.625 81 C0.30623884 85.459942 -15.59091053 84.12921277 -29 77.5 C-30.40365329 76.74350006 -31.80286556 75.97827317 -33.1875 75.1875 C-33.1875 70.53093175 -32.0761067 68.86163957 -29.6875 64.9375 C-29.0378125 63.85984375 -28.388125 62.7821875 -27.71875 61.671875 C-27.2134375 60.85203125 -26.708125 60.0321875 -26.1875 59.1875 C-22.81426259 59.75068398 -20.12989857 60.56258467 -17.125 62.1875 C-12.21715985 64.83093074 -8.27791541 65.34294487 -2.6875 65.375 C-1.00140625 65.39626953 -1.00140625 65.39626953 0.71875 65.41796875 C3.71636257 65.19466175 5.40284892 64.96031472 7.8125 63.1875 C8.46858979 60.12574764 8.8125 57.31528616 8.8125 54.1875 C4.47256809 52.6882508 0.13998467 51.2628456 -4.2890625 50.05078125 C-14.92043262 47.1217183 -23.56230336 44.54071879 -30.1875 35.1875 C-33.10656606 29.03185544 -33.28630151 22.36181547 -31.0625 15.9375 C-30.44375 15.03 -29.825 14.1225 -29.1875 13.1875 C-28.79691406 12.61386719 -28.40632812 12.04023437 -28.00390625 11.44921875 C-20.99237276 2.17333734 -10.98823809 0.00753135 0 0 Z " fill="#1D252C" transform="translate(675.1875,669.8125)"/>
<path d="M0 0 C0.83781006 0.0112793 1.67562012 0.02255859 2.53881836 0.03417969 C11.94016408 0.24250963 21.30652034 1.59029235 29.625 6.3125 C30.625 9.3125 30.625 9.3125 29.296875 12.1953125 C28.66265625 13.26523437 28.0284375 14.33515625 27.375 15.4375 C26.75109375 16.51257813 26.1271875 17.58765625 25.484375 18.6953125 C23.625 21.3125 23.625 21.3125 20.625 22.3125 C18.671875 21.53515625 18.671875 21.53515625 16.375 20.375 C9.75179641 17.5574481 2.70624167 17.35975112 -4.375 18.3125 C-6.3751161 19.50725072 -6.3751161 19.50725072 -7.375 21.3125 C-7.53311388 24.36520463 -7.53311388 24.36520463 -6.375 27.3125 C-2.12066008 30.61400151 2.68205709 31.4413987 7.8125 32.625 C17.9990133 35.15081384 26.4787722 38.39055642 32.625 47.3125 C34.70986175 53.56708524 34.84191582 61.59538478 32.125 67.6875 C27.10751923 75.9742104 19.72528793 79.7823751 10.625 82.3125 C-3.93106704 85.83336687 -20.52913209 82.80592295 -33.375 75.3125 C-32.70099282 71.40135974 -30.83243967 68.44130818 -28.8125 65.0625 C-28.17183594 63.98484375 -27.53117188 62.9071875 -26.87109375 61.796875 C-26.37738281 60.97703125 -25.88367188 60.1571875 -25.375 59.3125 C-21.74217969 60.46958194 -18.36722597 61.78682975 -14.9375 63.4375 C-8.43838694 66.06879996 -1.2669937 66.41521899 5.625 65.3125 C8.10958131 63.61092573 8.10958131 63.61092573 9.625 61.3125 C10.11295724 58.23584263 10.11295724 58.23584263 8.625 55.3125 C3.59791254 51.85637737 -1.94205177 50.55602548 -7.75 48.9375 C-16.09011147 46.58608702 -24.00474496 43.93204313 -29.5 36.8125 C-32.58429231 31.0529434 -32.37915191 24.61915192 -31.375 18.3125 C-28.49802298 11.10436486 -22.58862025 5.80619704 -15.66455078 2.49438477 C-10.38088036 0.26819303 -5.69035156 -0.12610833 0 0 Z " fill="#1C242B" transform="translate(806.375,669.6875)"/>
<path d="M0 0 C7.92 0 15.84 0 24 0 C24 8.25 24 16.5 24 25 C30.93 25 37.86 25 45 25 C45 30.94 45 36.88 45 43 C38.07 43 31.14 43 24 43 C24.09698889 48.19656252 24.19975114 53.39233731 24.31738281 58.58837891 C24.35563771 60.3555607 24.3904967 62.12281944 24.421875 63.89013672 C24.46760152 66.43224563 24.52558289 68.97382648 24.5859375 71.515625 C24.59748871 72.30430969 24.60903992 73.09299438 24.62094116 73.90557861 C24.73296247 79.27133725 24.73296247 79.27133725 27 84 C30.00313748 85.50156874 32.79067522 85.09281204 36.125 85.0625 C37.40632812 85.05347656 38.68765625 85.04445313 40.0078125 85.03515625 C40.99523437 85.02355469 41.98265625 85.01195312 43 85 C44.96818336 90.82254243 46.40214229 95.83381819 46 102 C36.66604572 106.29361897 26.32475358 107.78357424 16.25 104.9375 C10.35314127 102.59373945 5.60800972 99.29765243 2.77368164 93.48510742 C-0.72256524 83.07926126 -0.45505671 73.05066954 -0.25 62.1875 C-0.22988976 60.31968076 -0.21164705 58.45184045 -0.1953125 56.58398438 C-0.15170856 52.05545902 -0.08293567 47.52796878 0 43 C-3.96 43 -7.92 43 -12 43 C-12 37.06 -12 31.12 -12 25 C-8.04 25 -4.08 25 0 25 C0 16.75 0 8.5 0 0 Z " fill="#1D252C" transform="translate(722,647)"/>
<path d="M0 0 C8.85188498 5.18491914 13.6507907 13.2424488 16.96484375 22.6875 C19.75355441 35.61697669 17.84529981 48.99200371 10.77734375 60.1875 C6.68810799 65.7795299 2.31561996 68.88744874 -4.28515625 71.125 C-10.64300886 72.04791409 -14.02993603 70.74674571 -19.1796875 66.953125 C-26.18339052 60.87198768 -31.52968038 51.3159806 -32.50976562 41.98706055 C-33.18689664 27.91855374 -33.04950782 16.72484765 -23.1796875 5.79296875 C-16.50577556 -0.35504393 -8.99420878 -3.44393635 0 0 Z " fill="#0A334C" transform="translate(840.28515625,212.875)"/>
<path d="M0 0 C7.43529825 3.27558948 12.11793383 9.41970896 15.75390625 16.5078125 C19.9579867 27.49987667 19.65843183 41.71969262 15.69140625 52.7578125 C12.57070435 59.46381518 8.79843286 66.33498631 1.9375 69.7578125 C-3.90349282 71.47891536 -9.96245561 71.3886109 -15.49609375 68.8828125 C-25.07140597 59.97554532 -31.11380692 49.68258222 -31.62890625 36.36181641 C-31.86667318 24.22508852 -30.47487651 15.36275144 -22.078125 6.046875 C-15.44895436 -0.0474845 -8.96780788 -2.53472924 0 0 Z " fill="#09324C" transform="translate(736.18359375,210.6171875)"/>
<path d="M0 0 C9.20026653 9.20026653 9.10432535 29.88410673 9.375 42.1875 C8.98577002 58.22701864 5.77600902 75.78739021 -2 90 C-1.34 90.33 -0.68 90.66 0 91 C-0.60585938 91.54140625 -1.21171875 92.0828125 -1.8359375 92.640625 C-7.09014028 98.36903381 -9.71367388 107.4106759 -11 115 C-10.8697942 117.43205838 -10.49906498 119.60448811 -10 122 C-11.98 123.485 -11.98 123.485 -14 125 C-14.40089844 124.32195312 -14.80179688 123.64390625 -15.21484375 122.9453125 C-22.17495457 111.55030114 -29.97800103 101.40421927 -43 97 C-53.33589339 95.7459644 -61.51782299 98.1273287 -71 102 C-72.99490997 102.68174676 -74.99345125 103.35331109 -77 104 C-76.71253906 103.15050781 -76.42507813 102.30101562 -76.12890625 101.42578125 C-74.63301855 96.88635733 -73.2732918 92.30891789 -71.90234375 87.73046875 C-71 85 -71 85 -70 84 C-67.68811788 83.91775913 -65.37535142 83.86025799 -63.0625 83.8125 C-44.89596426 83.00900001 -27.606886 74.99412823 -15 62 C-2.81245351 48.27149936 0.67989544 33.12752336 0.25 15.1875 C0.22987329 13.70510267 0.21163358 12.22267849 0.1953125 10.74023438 C0.15187631 7.15958446 0.0832031 3.57997325 0 0 Z " fill="#0D74B8" transform="translate(837,444)"/>
<path d="M0 0 C14.35312363 4.38245616 31.04165445 11.48710101 39.07421875 24.77734375 C40.95036127 29.28166903 40.50571701 34.22449508 40 39 C37.55382179 44.47943918 34.24553233 46.51527416 29 49 C11.5122827 53.34297615 -6.09274102 46.86892585 -21 38 C-24.84184351 35.57748359 -28.62411513 33.04687915 -32 30 C-32 29.34 -32 28.68 -32 28 C-31.03513672 27.84917969 -31.03513672 27.84917969 -30.05078125 27.6953125 C-20.82920643 25.7746992 -15.04577134 20.87630861 -8 15 C-6.82244141 14.195625 -6.82244141 14.195625 -5.62109375 13.375 C-4.81865234 12.694375 -4.81865234 12.694375 -4 12 C-4 11.01 -4 10.02 -4 9 C-4.66 8.34 -5.32 7.68 -6 7 C-4.02 4.69 -2.04 2.38 0 0 Z " fill="#4EBCBC" transform="translate(743,433)"/>
<path d="M0 0 C0.928125 0.5259375 0.928125 0.5259375 1.875 1.0625 C2.57625 1.371875 3.2775 1.68125 4 2 C4.66 1.67 5.32 1.34 6 1 C4.0255735 26.1739379 -11.50825503 50.5350904 -30 67 C-37.25113828 72.87066948 -44.99827545 78.10213324 -52.8125 83.1875 C-53.40514648 83.57429932 -53.99779297 83.96109863 -54.60839844 84.35961914 C-58.75260867 87 -58.75260867 87 -61 87 C-60.34 73.8 -59.68 60.6 -59 47 C-58.67 47 -58.34 47 -58 47 C-57.67 50.3 -57.34 53.6 -57 57 C-36.68646392 51.00584181 -21.24342095 38.50859883 -10.18823242 20.71069336 C-9 19 -9 19 -7.42138672 17.43334961 C-5.42161171 15.41674379 -4.84228046 13.29904752 -3.9375 10.625 C-2.70856941 7.04185298 -1.43452485 3.50661631 0 0 Z " fill="#2D9FBD" transform="translate(981,305)"/>
<path d="M0 0 C5.34785785 3.07876676 8.56612358 7.19446449 10.52734375 13.078125 C11.13956654 22.44984302 10.97975522 29.01458818 5.65234375 36.828125 C1.25060371 41.48879093 -3.44186208 43.1594188 -9.72265625 43.453125 C-16.21043414 43.37830713 -20.39498111 40.15580014 -24.84765625 35.703125 C-29.14222066 28.76575172 -29.39031436 21.0569208 -28.47265625 13.078125 C-26.63838349 7.25964117 -23.30171811 2.82517188 -17.91015625 -0.10546875 C-12.11161006 -2.04761002 -5.74863518 -2.14325103 0 0 Z " fill="#FAFAFA" transform="translate(1076.47265625,690.921875)"/>
<path d="M0 0 C3 1 3 1 4.5625 2.9375 C5.84269674 5.66487567 6.36754294 7.58330753 6.875 10.5 C8.85220994 21.30231773 13.19604285 30.43970684 20 39 C20.52207031 39.68578125 21.04414062 40.3715625 21.58203125 41.078125 C28.87848617 50.09661429 38.4493823 55.90334226 48.6184082 61.11450195 C57.06171188 65.49117228 65.1665498 70.9582335 69 80 C69.82411872 86.17130765 69.48881582 91.83247942 66.3359375 97.27734375 C63.32475823 101.16018017 59.77385601 103.50935898 55.0625 104.8125 C54.381875 104.874375 53.70125 104.93625 53 105 C55.21934164 101.67098753 56.34683329 101.24976756 60 100 C59.46819622 92.55474712 57.80361701 86.30324672 52.1875 81.0625 C47.97447738 77.71392047 43.26339632 75.1081554 38.62963867 72.39355469 C33.40625618 69.31311498 28.64433987 65.90610476 24 62 C23.30777344 61.44054687 22.61554687 60.88109375 21.90234375 60.3046875 C20.22325298 58.92269231 18.60449465 57.46794191 17 56 C17 55.34 17 54.68 17 54 C16.34 54 15.68 54 15 54 C13.45392357 51.9466647 12.05740393 49.91760867 10.6875 47.75 C10.08518555 46.79806763 10.08518555 46.79806763 9.47070312 45.8269043 C0.12704294 30.71138295 -0.18173068 17.22402977 0 0 Z " fill="#DBF699" transform="translate(657,322)"/>
<path d="M0 0 C5.1120298 1.99358025 8.90610289 4.71459156 11.66796875 9.44921875 C14.94331868 17.31005858 14.38035632 23.93465198 11.3203125 31.8515625 C8.67122511 36.75864639 4.61159988 39.50644786 -0.58203125 41.32421875 C-1.40703125 41.36546875 -2.23203125 41.40671875 -3.08203125 41.44921875 C-4.36078125 41.53171875 -5.63953125 41.61421875 -6.95703125 41.69921875 C-12.4817022 41.60558026 -16.52522373 39.68758837 -20.83203125 36.26171875 C-25.74975626 30.11456249 -26.72129021 24.0563692 -26.48828125 16.34765625 C-25.60612026 10.05377687 -22.10514621 6.06174845 -17.45703125 1.94921875 C-12.07561592 -1.78420171 -6.18744889 -1.63682982 0 0 Z " fill="#FAFAFA" transform="translate(413.08203125,689.55078125)"/>
<path d="M0 0 C1.69576172 -0.03867187 1.69576172 -0.03867187 3.42578125 -0.078125 C8.62520344 0.44493065 11.66099371 2.81819245 14.9375 6.75 C15.43765625 7.3378125 15.9378125 7.925625 16.453125 8.53125 C20.35459781 13.96368049 19.36702525 22.83261433 18.6875 29.25 C17.43344398 34.33020652 15.61426717 37.82119799 11.375 40.96484375 C6.52606139 43.63323832 2.26177374 45.17904562 -3.3125 44.25 C-9.33687386 42.10901269 -13.22738912 39.28482494 -16.21484375 33.50390625 C-19.508121 25.961239 -19.27063181 18.0318063 -16.4375 10.36328125 C-12.67147623 3.28891021 -7.81925499 0.10626394 0 0 Z " fill="#FAFAFA" transform="translate(593.3125,689.75)"/>
<path d="M0 0 C1.9375 1.625 1.9375 1.625 2.9375 3.625 C3.00815617 5.66555005 3.02171976 7.70834257 3 9.75 C2.99097656 10.84570312 2.98195313 11.94140625 2.97265625 13.0703125 C2.96105469 13.91335938 2.94945312 14.75640625 2.9375 15.625 C-0.9375 14.75 -0.9375 14.75 -2.0625 13.625 C-2.7225 14.285 -3.3825 14.945 -4.0625 15.625 C-3.7325 12.325 -3.4025 9.025 -3.0625 5.625 C-11.02466701 8.44493415 -16.173032 13.67085611 -22 19.625 C-28.72693859 26.44463262 -36.27857389 33.48733417 -46.0625 34.625 C-46.0625 35.285 -46.0625 35.945 -46.0625 36.625 C-47.62216218 37.133783 -49.18539241 37.63163469 -50.75 38.125 C-51.62011719 38.4034375 -52.49023438 38.681875 -53.38671875 38.96875 C-56.0625 39.625 -56.0625 39.625 -61.0625 39.625 C-61.0625 35.335 -61.0625 31.045 -61.0625 26.625 C-60.05832031 26.15191406 -59.05414062 25.67882812 -58.01953125 25.19140625 C-48.71003362 20.72206912 -40.40581889 15.74490146 -32.0625 9.625 C-11.72290837 -5.26334661 -11.72290837 -5.26334661 0 0 Z " fill="#D5F69D" transform="translate(983.0625,289.375)"/>
<path d="M0 0 C6.76326194 1.26726451 12.45385958 3.30158068 18.625 6.3125 C19.83542969 6.88000977 19.83542969 6.88000977 21.0703125 7.45898438 C26.1237292 9.88314774 30.50831395 12.65280246 35 16 C35.721875 16.350625 36.44375 16.70125 37.1875 17.0625 C39.61368703 18.31742432 41.08949253 20.03642288 43 22 C44.30523483 23.15410238 45.61850198 24.29915274 46.9375 25.4375 C52.1196314 29.94787363 56.60221339 34.72265607 61 40 C61.78375 40.7425 62.5675 41.485 63.375 42.25 C70.59440555 49.81318676 76.16010718 59.28658692 80 69 C79.505 70.485 79.505 70.485 79 72 C78.4225 70.865625 77.845 69.73125 77.25 68.5625 C75.68207702 65.67405572 75.68207702 65.67405572 72.875 64.125 C72.25625 64.08375 71.6375 64.0425 71 64 C69 63 69 63 67.875 60.875 C65.68057758 57.51021896 63.11806247 55.4067409 60.0625 52.83984375 C57.53561194 50.58574474 55.43353257 48.12164393 53.32421875 45.48046875 C51.87482394 43.73573635 51.87482394 43.73573635 49 42 C49 41.34 49 40.68 49 40 C48.41347656 39.73445313 47.82695313 39.46890625 47.22265625 39.1953125 C44.93804849 37.96668337 43.33377641 36.63612064 41.4375 34.875 C34.54767204 28.71513523 26.91342051 23.50772743 19.1953125 18.4453125 C17.65939173 17.43411911 16.13411526 16.40665603 14.6171875 15.3671875 C13.83601562 14.83351562 13.05484375 14.29984375 12.25 13.75 C11.55390625 13.27046875 10.8578125 12.7909375 10.140625 12.296875 C7.97493924 10.90017116 7.97493924 10.90017116 5.29296875 9.94921875 C3 9 3 9 2.0625 7.0625 C2 5 2 5 4 2 C2.68 1.34 1.36 0.68 0 0 Z " fill="#FCFDF4" transform="translate(789,143)"/>
<path d="M0 0 C5.91944897 0.78523303 11.67601027 1.98125229 17.5 3.28125 C20.98930731 3.99780418 24.46960289 4.53168202 28 5 C18.9 12 18.9 12 16 12 C15.75378906 12.6084375 15.50757813 13.216875 15.25390625 13.84375 C11.81993973 19.7488887 2.11581425 22.46278913 -4 25 C-5.05960938 25.44859375 -6.11921875 25.8971875 -7.2109375 26.359375 C-17.89241793 30.71018396 -17.89241793 30.71018396 -24 30 C-21.03512001 25.77729214 -18.01730562 21.91259186 -14.25 18.375 C-8.62544885 12.94665413 -4.40104809 6.42120132 0 0 Z " fill="#1C81C4" transform="translate(715,539)"/>
<path d="M0 0 C1.54296875 0.9921875 1.54296875 0.9921875 3.85546875 3.2421875 C4.75265625 4.1084375 4.75265625 4.1084375 5.66796875 4.9921875 C6.85546875 7.2421875 6.85546875 7.2421875 7.85546875 15.2421875 C-3.69453125 15.2421875 -15.24453125 15.2421875 -27.14453125 15.2421875 C-26.01026702 8.43660211 -26.01026702 8.43660211 -23.33203125 4.9921875 C-22.83058594 4.32703125 -22.32914063 3.661875 -21.8125 2.9765625 C-16.57778485 -2.46656051 -6.81008225 -2.40647715 0 0 Z " fill="#F6F6F7" transform="translate(895.14453125,688.7578125)"/>
<path d="M0 0 C1.34838722 0.63566826 2.68529389 1.29731225 4 2 C2.83984375 2.02126953 2.83984375 2.02126953 1.65625 2.04296875 C-6.56075018 2.41924227 -11.97697467 3.70565436 -17.6796875 9.79296875 C-24.14869976 17.85509597 -26.7048662 25.58982607 -26.5 35.875 C-26.48791504 36.84590576 -26.47583008 37.81681152 -26.46337891 38.81713867 C-26.2688786 45.83152706 -25.46040167 51.79068112 -22 58 C-21.57589844 58.804375 -21.15179687 59.60875 -20.71484375 60.4375 C-17.31442073 66.1964337 -13.12138735 70.21659994 -7 73 C1.15014622 74.4230414 7.35317804 70.43121464 14 66 C9.53505544 75.67404655 9.53505544 75.67404655 4.3125 77.9375 C-1.76660754 79.83228677 -7.37672086 78.93842178 -13.125 76.375 C-22.35361492 71.23779885 -27.12409976 63.18592707 -30.12890625 53.27734375 C-31.22456608 48.67102301 -31.22476816 44.21212704 -31.125 39.5 C-31.11597656 38.67757812 -31.10695313 37.85515625 -31.09765625 37.0078125 C-31.07436865 35.00507917 -31.03850959 33.00249846 -31 31 C-30.34 31 -29.68 31 -29 31 C-29.20496094 30.28457031 -29.40992188 29.56914062 -29.62109375 28.83203125 C-30.07342976 25.45116932 -29.4247487 23.78351977 -28.0625 20.6875 C-27.68222656 19.80449219 -27.30195312 18.92148438 -26.91015625 18.01171875 C-26.60980469 17.34785156 -26.30945313 16.68398437 -26 16 C-25.34 16 -24.68 16 -24 16 C-23.731875 15.278125 -23.46375 14.55625 -23.1875 13.8125 C-20.18234765 6.6950339 -16.94105319 4.42158175 -10.015625 1.16796875 C-6.2072442 -0.30703884 -4.00617345 -0.66769558 0 0 Z " fill="#CDF195" transform="translate(835,210)"/>
<path d="M0 0 C0.495 0.99 0.495 0.99 1 2 C-2.30381429 10.27390013 -7.78887579 16.75572033 -14 23 C-14.51820313 23.55300781 -15.03640625 24.10601562 -15.5703125 24.67578125 C-26.32925192 35.12490828 -44.16021457 41.34060601 -58.8125 41.25 C-61.21184344 41.20010407 -63.60234814 41.11080291 -66 41 C-66 40.67 -66 40.34 -66 40 C-65.25234375 39.89042969 -64.5046875 39.78085937 -63.734375 39.66796875 C-62.74953125 39.50941406 -61.7646875 39.35085938 -60.75 39.1875 C-59.77546875 39.03667969 -58.8009375 38.88585937 -57.796875 38.73046875 C-54.85185246 37.96130783 -53.35182565 36.86524103 -51 35 C-48.25 34.8125 -48.25 34.8125 -46 35 C-46 34.34 -46 33.68 -46 33 C-44.60587891 32.41992188 -44.60587891 32.41992188 -43.18359375 31.828125 C-32.32329105 27.66457175 -32.32329105 27.66457175 -23 21 C-22.01 21 -21.02 21 -20 21 C-19.8040625 20.44828125 -19.608125 19.8965625 -19.40625 19.328125 C-17.41088002 16.02467914 -14.54527494 14.02239605 -11.5 11.75 C-10.90574219 11.29109375 -10.31148437 10.8321875 -9.69921875 10.359375 C-5.27004278 7 -5.27004278 7 -3 7 C-2.690625 6.030625 -2.38125 5.06125 -2.0625 4.0625 C-1 1 -1 1 0 0 Z " fill="#92E1D4" transform="translate(833,487)"/>
<path d="M0 0 C21.91489362 9.57446809 21.91489362 9.57446809 30 15 C29.3791378 18.68297866 28.93325018 20.57688029 26 23 C21.60972208 21.90243052 18.5293244 20.79911935 15 18 C12.85266073 17.29485154 12.85266073 17.29485154 11 17 C11 16.34 11 15.68 11 15 C9.96875 14.731875 8.9375 14.46375 7.875 14.1875 C4.3514958 13.19001103 1.23119173 11.7338102 -2 10 C-1.34 6.7 -0.68 3.4 0 0 Z " fill="#BCEBC9" transform="translate(744,433)"/>
<path d="M0 0 C3.23669444 1.36937072 4.78924853 2.73000813 6.75 5.625 C17.67014213 20.61660253 33.3625057 28.70964142 50 36 C49.67580986 44.23442944 47.88996879 51.29789712 45 59 C43.8290519 55.48715571 44.5580006 53.74527301 45.51953125 50.2734375 C46.31139758 46.52655778 46.15872878 42.80949063 46 39 C45.16855469 38.73445313 44.33710937 38.46890625 43.48046875 38.1953125 C42.39378906 37.84210938 41.30710937 37.48890625 40.1875 37.125 C39.10855469 36.77695312 38.02960937 36.42890625 36.91796875 36.0703125 C34 35 34 35 31 33 C31 32.34 31 31.68 31 31 C30.30777344 30.93039062 29.61554687 30.86078125 28.90234375 30.7890625 C25.15555177 29.77041919 22.54925307 27.75181295 19.5625 25.375 C18.98628906 24.92423096 18.41007813 24.47346191 17.81640625 24.0090332 C14.21352035 21.13235399 11.05026719 18.17202879 8.203125 14.52734375 C6.82804488 12.71995822 6.82804488 12.71995822 4.25 10.25 C0.04878049 6.04878049 0.04878049 6.04878049 -0.125 2.3125 C-0.08375 1.549375 -0.0425 0.78625 0 0 Z " fill="#4DC3B1" transform="translate(674,472)"/>
<path d="M0 0 C-2.34133029 2.42938418 -4.70023581 4.84098035 -7.0625 7.25 C-8.04766602 8.27287109 -8.04766602 8.27287109 -9.05273438 9.31640625 C-13.11250412 13.43617259 -16.85105003 16.36637747 -22 19 C-23.00933594 19.60908203 -23.00933594 19.60908203 -24.0390625 20.23046875 C-27.38456727 22.24930784 -30.16815289 23.37861939 -34 24 C-34.70125 24.350625 -35.4025 24.70125 -36.125 25.0625 C-38 26 -38 26 -41 26 C-41.33 26.99 -41.66 27.98 -42 29 C-42 26.69 -42 24.38 -42 22 C-40.99582031 21.52691406 -39.99164062 21.05382812 -38.95703125 20.56640625 C-29.64579355 16.09563865 -21.34454438 11.08502969 -13 5 C-11.3214633 3.77924604 -9.63495861 2.56930313 -7.9375 1.375 C-6.93009766 0.64410156 -6.93009766 0.64410156 -5.90234375 -0.1015625 C-3.49693986 -1.23758487 -2.48405125 -0.73441515 0 0 Z " fill="#E2F3BD" transform="translate(964,294)"/>
<path d="M0 0 C0.33 0 0.66 0 1 0 C0.88399745 1.68814237 0.75668975 3.37550887 0.625 5.0625 C0.55539062 6.00222656 0.48578125 6.94195312 0.4140625 7.91015625 C-0.05899359 11.44022572 -0.95518733 14.59798802 -2 18 C-3.05316406 18.02578125 -4.10632813 18.0515625 -5.19140625 18.078125 C-19.0377384 18.56149375 -31.11154823 20.92445595 -43.4140625 27.73046875 C-45.97792139 28.9891608 -48.18761046 29.57864922 -51 30 C-48.04139638 22.56350983 -37.92990211 19.16692162 -31.01171875 16.09765625 C-25.48848852 14.08465016 -19.76229611 13.08639468 -14 12 C-12.66354217 11.67942341 -11.32839529 11.35249801 -10 11 C-10.66 12.32 -11.32 13.64 -12 15 C-9.03 15.33 -6.06 15.66 -3 16 C-2.814375 13.9890625 -2.814375 13.9890625 -2.625 11.9375 C-2.16879285 7.75890694 -1.27625681 3.99893799 0 0 Z " fill="#B2ED93" transform="translate(770,310)"/>
<path d="M0 0 C1.75 2.125 1.75 2.125 1.75 5.125 C2.69875 5.24875 3.6475 5.3725 4.625 5.5 C7.75 6.125 7.75 6.125 9.75 8.125 C10.63150311 14.00168737 8.07562277 18.87158427 5.75 24.125 C4.3694913 20.35831402 5.15431841 17.67710827 6.1875 13.875 C6.61869141 12.25851562 6.61869141 12.25851562 7.05859375 10.609375 C7.28675781 9.78953125 7.51492188 8.9696875 7.75 8.125 C6.86183594 8.01285156 5.97367188 7.90070313 5.05859375 7.78515625 C-0.73436192 6.95759115 -6.45475321 5.72599665 -12.1875 4.5625 C-13.34830078 4.32853516 -14.50910156 4.09457031 -15.70507812 3.85351562 C-18.55374363 3.27909336 -21.40203257 2.70287154 -24.25 2.125 C-24.91 5.095 -25.57 8.065 -26.25 11.125 C-26.58 11.125 -26.91 11.125 -27.25 11.125 C-27.5404271 2.41218704 -27.5404271 2.41218704 -25.25 -0.875 C-17.81430459 -4.14848344 -6.98822085 -4.03166588 0 0 Z " fill="#C1F394" transform="translate(798.25,297.875)"/>
<path d="M0 0 C6.7738752 3.78540085 11.98069986 8.69789976 15.9375 15.375 C15.5625 17.5859375 15.5625 17.5859375 14.9375 19.375 C14.5971875 18.72273438 14.256875 18.07046875 13.90625 17.3984375 C10.00508315 10.36388664 5.7711566 4.98621887 -2.0625 2.375 C-8.42871348 1.58346369 -13.0683684 2.1096639 -18.3203125 5.90625 C-27.89968036 13.98212963 -30.48319282 24.53607819 -31.60620117 36.53222656 C-31.77145212 38.47874594 -31.91890062 40.42676367 -32.0625 42.375 C-32.3925 42.375 -32.7225 42.375 -33.0625 42.375 C-33.87782774 19.65244295 -33.87782774 19.65244295 -29.0625 11.375 C-28.74152344 10.68535156 -28.42054688 9.99570313 -28.08984375 9.28515625 C-22.99965183 -0.17911693 -9.46609287 -4.33255789 0 0 Z " fill="#B6E67B" transform="translate(736.0625,208.625)"/>
<path d="M0 0 C3.375 1.0625 3.375 1.0625 5.3125 2.75 C6.7363395 5.8489448 6.92653827 7.68432812 6.375 11.0625 C3.89377621 14.41944984 2.43134831 15.84691871 -1.6875 16.6875 C-4.625 16.0625 -4.625 16.0625 -7 13.9375 C-8.92785153 10.52668575 -9.34722637 8.91437398 -8.625 5.0625 C-5.92665364 1.21940065 -4.75860157 0.08204485 0 0 Z " fill="#3A86B0" transform="translate(836.625,219.9375)"/>
<path d="M0 0 C2.9375 2.0625 2.9375 2.0625 5 5 C5 8.54361243 4.65850044 10.86591591 2.875 13.9375 C-0.18452459 15.6712306 -2.56817525 15.42145216 -6 15 C-8.4375 13.4375 -8.4375 13.4375 -10 11 C-10.56783945 7.02512383 -10.62340519 4.93510779 -8.375 1.5625 C-5.24316508 -0.49791771 -3.68455227 -0.6767545 0 0 Z " fill="#4590BA" transform="translate(737,220)"/>
<path d="M0 0 C1.32 0 2.64 0 4 0 C5.45703125 1.9765625 5.45703125 1.9765625 6.8125 4.625 C10.22367662 10.72193847 14.44462136 15.30633532 21 18 C23.81496741 18.45275278 23.81496741 18.45275278 26.75 18.625 C27.73484375 18.69976562 28.7196875 18.77453125 29.734375 18.8515625 C30.48203125 18.90054687 31.2296875 18.94953125 32 19 C32 20.32 32 21.64 32 23 C24.50599207 23.44964048 18.15219125 23.7273331 12 19 C6.81530871 14.19494092 2.89972399 8.44086158 0 2 C0 1.34 0 0.68 0 0 Z " fill="#B3E895" transform="translate(705,263)"/>
<path d="M0 0 C4.41761804 4.41761804 4.15669026 11.76233137 4.25 17.6875 C3.99819433 31.40350307 2.46408813 42.58950305 -7 53 C-10 55 -10 55 -13 55 C-12.08806558 51.43516546 -11.35528833 49.34568595 -8.6875 46.75 C-5.02710187 43.00447633 -3.05028508 38.78399853 -1 34 C-0.62617187 33.13246094 -0.25234375 32.26492188 0.1328125 31.37109375 C1.36973895 26.56268146 1.24977585 21.94273588 1.1875 17 C1.18685547 16.02804688 1.18621094 15.05609375 1.18554688 14.0546875 C1.15617939 9.26452381 0.99407983 4.7079621 0 0 Z " fill="#A4E471" transform="translate(752,228)"/>
<path d="M0 0 C-0.99 1.485 -0.99 1.485 -2 3 C-0.35 3 1.3 3 3 3 C3 3.66 3 4.32 3 5 C3.53367187 5.14695312 4.06734375 5.29390625 4.6171875 5.4453125 C10.972064 7.35837221 16.58446375 10.14250493 22 14 C22.33 14.66 22.66 15.32 23 16 C25.02463255 16.65213292 25.02463255 16.65213292 27 17 C27 17.66 27 18.32 27 19 C21.82751881 18.4306261 17.87987384 16.7706888 13.3125 14.4375 C12.61640625 14.0854248 11.9203125 13.73334961 11.203125 13.37060547 C5.07991855 10.19200728 -0.8571601 6.64163093 -6 2 C-6 1.34 -6 0.68 -6 0 C-2.25 -1.125 -2.25 -1.125 0 0 Z " fill="#3CBCB6" transform="translate(717,461)"/>
<path d="M0 0 C6.76326194 1.26726451 12.45385958 3.30158068 18.625 6.3125 C19.83542969 6.88000977 19.83542969 6.88000977 21.0703125 7.45898438 C26.11680764 9.87982742 30.53799244 12.62059749 35 16 C34.01 16.495 34.01 16.495 33 17 C30.70703125 16.1796875 30.70703125 16.1796875 27.8125 14.875 C22.93062032 12.7675864 18.03568151 10.88314456 13 9.1875 C11.7625 8.76855469 10.525 8.34960938 9.25 7.91796875 C5.92129302 6.81878847 5.92129302 6.81878847 2 7 C2.66 5.35 3.32 3.7 4 2 C2.68 1.34 1.36 0.68 0 0 Z " fill="#EAFB84" transform="translate(789,143)"/>
<path d="M0 0 C0 4.40450482 -1.98016315 6.89220673 -5 10 C-9.73409774 13.04628898 -14.34805623 13.37167621 -19.8125 12.52734375 C-23.10685464 11.73316897 -25.95830193 10.48849055 -29 9 C-26.66785852 7.79371992 -24.50357861 6.8345262 -22 6 C-21.34 6.33 -20.68 6.66 -20 7 C-12.858484 7.76516243 -8.07149767 5.72415285 -2 2 C-1.34 1.34 -0.68 0.68 0 0 Z " fill="#D0F68E" transform="translate(848,276)"/>
<path d="M0 0 C1.34838722 0.63566826 2.68529389 1.29731225 4 2 C2.83984375 2.02126953 2.83984375 2.02126953 1.65625 2.04296875 C-6.56075018 2.41924227 -11.97697467 3.70565436 -17.6796875 9.79296875 C-19.28155519 11.78932624 -20.65430876 13.82373376 -22 16 C-22.40347656 16.60972656 -22.80695312 17.21945313 -23.22265625 17.84765625 C-27.56448099 25.67539047 -26.8227582 35.28856543 -27 44 C-27.33 44 -27.66 44 -28 44 C-28.06058594 42.95199219 -28.12117187 41.90398437 -28.18359375 40.82421875 C-28.26801738 39.44529952 -28.35266447 38.06639395 -28.4375 36.6875 C-28.47681641 35.99720703 -28.51613281 35.30691406 -28.55664062 34.59570312 C-28.74927415 31.52838465 -29.02322717 28.93031848 -30 26 C-29.22265625 23.51953125 -29.22265625 23.51953125 -28.0625 20.8125 C-27.68222656 19.91144531 -27.30195312 19.01039063 -26.91015625 18.08203125 C-26.60980469 17.39496094 -26.30945313 16.70789063 -26 16 C-25.34 16 -24.68 16 -24 16 C-23.731875 15.278125 -23.46375 14.55625 -23.1875 13.8125 C-20.18234765 6.6950339 -16.94105319 4.42158175 -10.015625 1.16796875 C-6.2072442 -0.30703884 -4.00617345 -0.66769558 0 0 Z " fill="#D5EE88" transform="translate(835,210)"/>
<path d="M0 0 C7.75 0.75 7.75 0.75 10 3 C10 3.99 10 4.98 10 6 C11.423125 6.185625 11.423125 6.185625 12.875 6.375 C16 7 16 7 18 9 C18.88150311 14.87668737 16.32562277 19.74658427 14 25 C12.6194913 21.23331402 13.40431841 18.55210827 14.4375 14.75 C14.86869141 13.13351562 14.86869141 13.13351562 15.30859375 11.484375 C15.53675781 10.66453125 15.76492188 9.8446875 16 9 C14.99839844 8.86722656 13.99679687 8.73445313 12.96484375 8.59765625 C9.12369904 8.04892129 5.35327755 7.2678608 1.5625 6.4375 C0.32628906 6.16808594 -0.90992188 5.89867187 -2.18359375 5.62109375 C-3.57771484 5.31365234 -3.57771484 5.31365234 -5 5 C-4.360625 4.731875 -3.72125 4.46375 -3.0625 4.1875 C-0.66868314 3.11332248 -0.66868314 3.11332248 0 0 Z " fill="#C3EE94" transform="translate(790,297)"/>
<path d="M0 0 C0.33 0 0.66 0 1 0 C0.88399745 1.68814237 0.75668975 3.37550887 0.625 5.0625 C0.55539062 6.00222656 0.48578125 6.94195312 0.4140625 7.91015625 C0 11 0 11 -2 18 C-12.89 18.495 -12.89 18.495 -24 19 C-23.505 17.515 -23.505 17.515 -23 16 C-20.56640625 14.8671875 -20.56640625 14.8671875 -17.5625 13.875 C-13.70795033 12.61330463 -13.70795033 12.61330463 -10 11 C-10.66 12.32 -11.32 13.64 -12 15 C-9.03 15.33 -6.06 15.66 -3 16 C-2.87625 14.659375 -2.7525 13.31875 -2.625 11.9375 C-2.16879285 7.75890694 -1.27625681 3.99893799 0 0 Z " fill="#C0EB97" transform="translate(770,310)"/>
<path d="M0 0 C7.63540792 6.96169546 13.29441277 16.39719418 17 26 C16.67 26.99 16.34 27.98 16 29 C15.4225 27.865625 14.845 26.73125 14.25 25.5625 C12.68207702 22.67405572 12.68207702 22.67405572 9.875 21.125 C9.25625 21.08375 8.6375 21.0425 8 21 C7.34 20.67 6.68 20.34 6 20 C6.12375 19.071875 6.2475 18.14375 6.375 17.1875 C6.4360978 12.21821193 3.78648666 8.50741396 1.3125 4.35546875 C0 2 0 2 0 0 Z " fill="#F1FCB1" transform="translate(852,186)"/>
<path d="M0 0 C3.2870477 1.38550828 4.90210594 2.84068329 6.9375 5.75 C9.48850671 9.30712895 12.16545767 12.66524432 15 16 C14.01 16.66 13.02 17.32 12 18 C2.87822878 10.51660517 2.87822878 10.51660517 0 5 C-0.25 2.125 -0.25 2.125 0 0 Z " fill="#4DC5AE" transform="translate(674,472)"/>
<path d="M0 0 C-3.67538331 4.00950907 -7.09826243 6.59369247 -12 9 C-13.32 9 -14.64 9 -16 9 C-16.33 9.99 -16.66 10.98 -17 12 C-17 9.69 -17 7.38 -17 5 C-14.9237343 3.96486753 -12.83868521 2.94733789 -10.75 1.9375 C-9.58984375 1.36902344 -8.4296875 0.80054688 -7.234375 0.21484375 C-4.09355667 -0.96485975 -3.00646952 -1.30230734 0 0 Z " fill="#E4F3CA" transform="translate(939,311)"/>
<path d="M0 0 C0.66 0.33 1.32 0.66 2 1 C-0.24923704 2.2930106 -2.49935185 3.58444977 -4.75 4.875 C-5.38421875 5.23980469 -6.0184375 5.60460937 -6.671875 5.98046875 C-9.74250368 7.7396831 -12.80851875 9.46873374 -16 11 C-15.34 11.66 -14.68 12.32 -14 13 C-18.09003859 14.14982602 -22.03177051 14.11094256 -26.25 14.0625 C-26.99507812 14.05798828 -27.74015625 14.05347656 -28.5078125 14.04882812 C-30.3385764 14.03709246 -32.16929873 14.0191585 -34 14 C-34 13.67 -34 13.34 -34 13 C-33.25234375 12.89042969 -32.5046875 12.78085937 -31.734375 12.66796875 C-30.74953125 12.50941406 -29.7646875 12.35085938 -28.75 12.1875 C-27.77546875 12.03667969 -26.8009375 11.88585937 -25.796875 11.73046875 C-22.85185246 10.96130783 -21.35182565 9.86524103 -19 8 C-16.25 7.8125 -16.25 7.8125 -14 8 C-14 7.34 -14 6.68 -14 6 C-11.71220962 4.96959833 -9.42048864 3.95047982 -7.125 2.9375 C-6.47402344 2.64294922 -5.82304688 2.34839844 -5.15234375 2.04492188 C-3.45989459 1.30338487 -1.73131425 0.64560999 0 0 Z " fill="#76D8CD" transform="translate(801,514)"/>
<path d="M0 0 C-2.63916708 1.75944472 -4.68626145 2.68645652 -7.625 3.75 C-12.30287911 5.55129166 -16.08932171 7.92720484 -20.08984375 10.92578125 C-20.72019531 11.28027344 -21.35054687 11.63476562 -22 12 C-22.99 11.67 -23.98 11.34 -25 11 C-24.67 9.35 -24.34 7.7 -24 6 C-20.94131492 4.98806371 -17.87750729 3.9926063 -14.8125 3 C-13.94818359 2.71382812 -13.08386719 2.42765625 -12.19335938 2.1328125 C-11.35224609 1.86210937 -10.51113281 1.59140625 -9.64453125 1.3125 C-8.87471924 1.06113281 -8.10490723 0.80976563 -7.31176758 0.55078125 C-4.80203413 -0.04716559 -2.57077005 -0.09543462 0 0 Z " fill="#36ADAC" transform="translate(722,139)"/>
<path d="M0 0 C4.32233741 3.26576604 7.26601668 5.70171762 9 11 C10.02605328 21.74505792 10.02605328 21.74505792 7.4765625 24.86328125 C6.98929688 25.23839844 6.50203125 25.61351562 6 26 C6.10699219 25.21496094 6.21398437 24.42992187 6.32421875 23.62109375 C7.07042803 17.08173282 7.36790442 12.73791124 4 7 C3.34 6.34 2.68 5.68 2 5 C0.02 5.99 0.02 5.99 -2 7 C-2 7.99 -2 8.98 -2 10 C-6.875 8.25 -6.875 8.25 -8 6 C-6.8553125 5.9071875 -6.8553125 5.9071875 -5.6875 5.8125 C-2.76948191 5.23064738 -2.76948191 5.23064738 -1.1875 2.4375 C-0.795625 1.633125 -0.40375 0.82875 0 0 Z " fill="#71C795" transform="translate(774,449)"/>
<path d="M0 0 C2.8712936 0.25568326 5.70565708 0.56806088 8.5625 0.9375 C9.36880859 1.03740234 10.17511719 1.13730469 11.00585938 1.24023438 C13.00452132 1.48858882 15.00234487 1.7436731 17 2 C17 3.32 17 4.64 17 6 C15.10448978 6.05441656 13.2085208 6.09298035 11.3125 6.125 C10.25675781 6.14820313 9.20101562 6.17140625 8.11328125 6.1953125 C4.92590599 5.99535169 2.79968657 5.52343305 0 4 C-0.33 3.01 -0.66 2.02 -1 1 C-0.67 0.67 -0.34 0.34 0 0 Z " fill="#C8F395" transform="translate(720,280)"/>
<path d="M0 0 C1.32 0.33 2.64 0.66 4 1 C1.65866971 3.42938418 -0.70023581 5.84098035 -3.0625 8.25 C-4.04766602 9.27287109 -4.04766602 9.27287109 -5.05273438 10.31640625 C-9.09468455 14.41808968 -12.85311835 17.40313384 -18 20 C-18 17 -18 17 -16.64453125 15.53515625 C-15.73767578 14.80619141 -15.73767578 14.80619141 -14.8125 14.0625 C-14.173125 13.54042969 -13.53375 13.01835937 -12.875 12.48046875 C-12.25625 11.99191406 -11.6375 11.50335938 -11 11 C-6.74826894 7.63816614 -3.02482565 4.53723848 0 0 Z " fill="#E6FBAE" transform="translate(960,293)"/>
<path d="M0 0 C0.33 0.66 0.66 1.32 1 2 C-0.109375 4.49609375 -0.109375 4.49609375 -1.75 7.4375 C-2.28109375 8.40558594 -2.8121875 9.37367188 -3.359375 10.37109375 C-4.77499965 12.63946373 -5.89702431 14.36742677 -8 16 C-8.99 16 -9.98 16 -11 16 C-13.32017794 17.08720188 -13.32017794 17.08720188 -15.6875 18.5 C-16.49574219 18.9640625 -17.30398438 19.428125 -18.13671875 19.90625 C-18.75160156 20.2671875 -19.36648438 20.628125 -20 21 C-18.45264442 16.64297245 -15.06870193 14.41297932 -11.5 11.75 C-10.90574219 11.29109375 -10.31148437 10.8321875 -9.69921875 10.359375 C-5.27004278 7 -5.27004278 7 -3 7 C-2.690625 6.030625 -2.38125 5.06125 -2.0625 4.0625 C-1 1 -1 1 0 0 Z " fill="#70D7B7" transform="translate(833,487)"/>
<path d="M0 0 C2.34054554 2.34054554 2.99321065 4.21475064 4.125 7.3125 C4.47820313 8.25738281 4.83140625 9.20226562 5.1953125 10.17578125 C5.98399678 12.94383335 6.15620348 15.14147629 6 18 C5.34 18 4.68 18 4 18 C3.34 20.64 2.68 23.28 2 26 C1.67 26 1.34 26 1 26 C0.67 17.42 0.34 8.84 0 0 Z " fill="#38AEAD" transform="translate(837,444)"/>
<path d="M0 0 C1.72945653 0.14235457 3.45855654 0.28904382 5.1875 0.4375 C6.63189453 0.55931641 6.63189453 0.55931641 8.10546875 0.68359375 C10.78649602 0.97666151 13.3662986 1.42703754 16 2 C15.67 2.99 15.34 3.98 15 5 C11.37 5 7.74 5 4 5 C3.67 6.65 3.34 8.3 3 10 C2.34 8.68 1.68 7.36 1 6 C0.34 6 -0.32 6 -1 6 C-0.67 4.02 -0.34 2.04 0 0 Z " fill="#1A5155" transform="translate(774,300)"/>
<path d="M0 0 C0.33 0 0.66 0 1 0 C1.66 5.94 2.32 11.88 3 18 C1.35 16.68 -0.3 15.36 -2 14 C-2 19.61 -2 25.22 -2 31 C-2.33 31 -2.66 31 -3 31 C-3.30384048 20.24179649 -3.46861792 10.34391414 0 0 Z " fill="#7ED8A1" transform="translate(659,308)"/>
<path d="M0 0 C0.99 0 1.98 0 3 0 C2.59579069 5.65893033 0.79663015 8.02257794 -3 12 C-6 14 -6 14 -9 14 C-7.71191248 8.96474879 -5.78504829 6.50116967 -2 3 C-1.34 2.01 -0.68 1.02 0 0 Z " fill="#C1F486" transform="translate(748,269)"/>
<path d="M0 0 C2.7356105 1.20366862 5.20904625 2.7175978 7.6875 4.375 C8.28949219 4.77460938 8.89148438 5.17421875 9.51171875 5.5859375 C11.31772078 7.30187644 11.61315581 8.57577643 12 11 C6.31251115 9.74875245 3.27152492 7.95897432 -1 4 C-0.67 2.68 -0.34 1.36 0 0 Z " fill="#5ACDB7" transform="translate(688,488)"/>
<path d="M0 0 C0.33 0 0.66 0 1 0 C1.33 3.3 1.66 6.6 2 10 C5.63 9.01 9.26 8.02 13 7 C10.68762835 10.46855748 10.27896458 10.29298949 6.5 11.25 C3.97461418 12.10188651 3.97461418 12.10188651 2 14 C0.56361392 18.98669883 0.19932246 23.83047559 0 29 C-0.33 29 -0.66 29 -1 29 C-0.67 19.43 -0.34 9.86 0 0 Z " fill="#1994C0" transform="translate(922,352)"/>
<path d="M0 0 C0 4.40450482 -1.98016315 6.89220673 -5 10 C-10.49744749 13.53748795 -15.78498102 13.19408929 -22 12 C-19.39398401 11.30391184 -17.0163375 10.88329428 -14.3125 10.5625 C-13.219375 10.376875 -12.12625 10.19125 -11 10 C-10.67 9.34 -10.34 8.68 -10 8 C-10.66 7.67 -11.32 7.34 -12 7 C-10.95199219 6.49339844 -10.95199219 6.49339844 -9.8828125 5.9765625 C-8.97273437 5.53054688 -8.06265625 5.08453125 -7.125 4.625 C-5.76761719 3.96371094 -5.76761719 3.96371094 -4.3828125 3.2890625 C-1.90465528 2.09497301 -1.90465528 2.09497301 0 0 Z " fill="#BBEF80" transform="translate(848,276)"/>
<path d="M0 0 C0.66 0.33 1.32 0.66 2 1 C0.35 2.98 -1.3 4.96 -3 7 C3.56882431 10.1063786 10.06001352 12.83836487 17 15 C12.02528018 16.97294241 7.88051226 14.29346665 3.21875 12.4140625 C-0.38263465 10.8319008 -3.6722966 9.08948818 -7 7 C-5.66667905 3.00003714 -3.5042173 2.16217663 0 0 Z " fill="#82C2E5" transform="translate(525,519)"/>
<path d="M0 0 C-1.46582015 3.42280517 -3.38062255 5.56480483 -6.0625 8.125 C-8.91571933 10.77905 -8.91571933 10.77905 -11 14 C-12.32 13.67 -13.64 13.34 -15 13 C-14.65066406 12.52949219 -14.30132813 12.05898438 -13.94140625 11.57421875 C-13.25884766 10.64029297 -13.25884766 10.64029297 -12.5625 9.6875 C-12.11003906 9.07261719 -11.65757812 8.45773437 -11.19140625 7.82421875 C-9.82663692 5.90322899 -9.82663692 5.90322899 -9 3 C-8.01 2.67 -7.02 2.34 -6 2 C-6 2.66 -6 3.32 -6 4 C-5.071875 3.01 -5.071875 3.01 -4.125 2 C-2 0 -2 0 0 0 Z " fill="#1CA4C2" transform="translate(706,551)"/>
<path d="M0 0 C0 0.99 0 1.98 0 3 C-1.55851755 3.82011312 -3.12201716 4.63076213 -4.6875 5.4375 C-5.99267578 6.11619141 -5.99267578 6.11619141 -7.32421875 6.80859375 C-9.90998264 7.95991928 -12.21356528 8.56320753 -15 9 C-13.52519903 5.17551612 -11.54705088 3.74957636 -8.0625 1.6875 C-7.18722656 1.15511719 -6.31195312 0.62273437 -5.41015625 0.07421875 C-3 -1 -3 -1 0 0 Z " fill="#A9EA98" transform="translate(734,331)"/>
<path d="M0 0 C3.3 0.33 6.6 0.66 10 1 C9.53549624 8.89656397 7.73688843 15.59130667 5 23 C3.8290519 19.48715571 4.5580006 17.74527301 5.51953125 14.2734375 C6.31139758 10.52655778 6.15872878 6.80949063 6 3 C4.02 2.34 2.04 1.68 0 1 C0 0.67 0 0.34 0 0 Z " fill="#2BB5C3" transform="translate(714,508)"/>
<path d="M0 0 C7.95467422 -0.45892351 7.95467422 -0.45892351 11.5625 1.125 C13 3 13 3 13.5 5.5625 C12.7990345 10.38163783 10.96266656 14.56647643 9 19 C7.6194913 15.23331402 8.40431841 12.55210827 9.4375 8.75 C9.72496094 7.67234375 10.01242187 6.5946875 10.30859375 5.484375 C10.53675781 4.66453125 10.76492188 3.8446875 11 3 C9.9275 2.87625 8.855 2.7525 7.75 2.625 C4.55333667 2.09222278 2.75908348 1.50162508 0 0 Z " fill="#BEE993" transform="translate(795,303)"/>
<path d="M0 0 C0.33 0 0.66 0 1 0 C1.45386061 3.05817739 1.85634776 6.12103853 2.25 9.1875 C2.37890625 10.05181641 2.5078125 10.91613281 2.640625 11.80664062 C3.43713823 18.30320166 3.43713823 18.30320166 1.046875 22.11328125 C0.37140625 22.73589844 -0.3040625 23.35851562 -1 24 C-1.10466648 15.92905177 -1.03387512 8.0125322 0 0 Z " fill="#2599C8" transform="translate(620,301)"/>
<path d="M0 0 C4.875 1.75 4.875 1.75 6 4 C6.039992 5.99960012 6.04346799 8.00047242 6 10 C2.125 9.125 2.125 9.125 1 8 C0.34 8.66 -0.32 9.32 -1 10 C-0.67 6.7 -0.34 3.4 0 0 Z " fill="#9FE497" transform="translate(980,295)"/>
<path d="M0 0 C1.0725 0.01417969 2.145 0.02835937 3.25 0.04296875 C4.3225 0.04941406 5.395 0.05585938 6.5 0.0625 C9.25 0.23046875 9.25 0.23046875 11.25 1.23046875 C10.92 2.22046875 10.59 3.21046875 10.25 4.23046875 C-0.30808656 4.59948925 -0.30808656 4.59948925 -4.75 2.23046875 C-2.75 0.23046875 -2.75 0.23046875 0 0 Z " fill="#C8EF99" transform="translate(778.75,296.76953125)"/>
<path d="M0 0 C5.89126992 1.55033419 11.02060001 4.54911639 16 8 C16.33 8.66 16.66 9.32 17 10 C12.51695963 8.52404517 8.06783525 6.96771452 3.625 5.375 C2.66400391 5.03082031 2.66400391 5.03082031 1.68359375 4.6796875 C0.12218595 4.12037724 -1.43893701 3.56027192 -3 3 C-2.01 2.01 -1.02 1.02 0 0 Z " fill="#F6FDB7" transform="translate(807,150)"/>
<path d="M0 0 C0.33 0 0.66 0 1 0 C0 9 -1 18 -2 27 C-2.33 27 -2.66 27 -3 27 C-3.08767555 23.62516587 -3.14061628 20.25062785 -3.1875 16.875 C-3.21263672 15.92367187 -3.23777344 14.97234375 -3.26367188 13.9921875 C-3.32056144 8.53078926 -3.04470749 4.7468668 0 0 Z " fill="#B2F395" transform="translate(706,224)"/>
<path d="M0 0 C9.57 0 19.14 0 29 0 C25.63107852 2.24594765 23.85306617 2.11449466 19.91015625 2 C17.96020291 1.91380561 17.96020291 1.91380561 16 2.5625 C13.24478188 3.16520396 10.73365507 2.66035065 7.97265625 2.2578125 C5.63566848 1.9523844 3.35375846 1.92644505 1 2 C0.67 1.34 0.34 0.68 0 0 Z " fill="#49A7DF" transform="translate(551,523)"/>
<path d="M0 0 C7.35174806 -0.55253221 12.511583 0.48935892 19 4 C19 4.33 19 4.66 19 5 C12.05829437 4.66944259 6.20918975 4.24571282 0 1 C0 0.67 0 0.34 0 0 Z " fill="#3DC0BA" transform="translate(705,504)"/>
<path d="M0 0 C0.93779297 0.09667969 1.87558594 0.19335938 2.84179688 0.29296875 C3.81826172 0.40511719 4.79472656 0.51726562 5.80078125 0.6328125 C6.78884766 0.73722656 7.77691406 0.84164063 8.79492188 0.94921875 C11.23565422 1.20862025 13.67475745 1.47852695 16.11328125 1.7578125 C15.78328125 2.4178125 15.45328125 3.0778125 15.11328125 3.7578125 C7.16370133 3.98209532 -0.15783056 3.71184292 -7.88671875 1.7578125 C-4.50401388 -0.49732408 -3.86074271 -0.42117193 0 0 Z " fill="#38B0AD" transform="translate(751.88671875,479.2421875)"/>
<path d="M0 0 C2.53199972 2.53199972 3.11946497 4.54559335 4 8 C3.67497327 11.41278071 2.65798383 14.0156291 1 17 C-0.13480527 13.39006828 -0.10015767 10.0157673 -0.0625 6.25 C-0.05347656 5.07953125 -0.04445313 3.9090625 -0.03515625 2.703125 C-0.02355469 1.81109375 -0.01195312 0.9190625 0 0 Z " fill="#0D3C51" transform="translate(661,309)"/>
<path d="M0 0 C1.31611677 0.95336021 2.62778961 1.91285774 3.9375 2.875 C4.66839844 3.40867187 5.39929688 3.94234375 6.15234375 4.4921875 C8 6 8 6 9 8 C6.69 8.33 4.38 8.66 2 9 C0.50178941 5.62902617 0 3.79557881 0 0 Z " fill="#D8F4A1" transform="translate(816,275)"/>
<path d="M0 0 C0.33 0 0.66 0 1 0 C0.84660156 1.27746094 0.69320312 2.55492187 0.53515625 3.87109375 C-0.0268146 8.92883136 -0.32201232 13.98071937 -0.5625 19.0625 C-0.60568359 19.92810547 -0.64886719 20.79371094 -0.69335938 21.68554688 C-0.79801286 23.79024468 -0.89935911 25.89510651 -1 28 C-1.33 28 -1.66 28 -2 28 C-2.06058594 26.95199219 -2.12117187 25.90398437 -2.18359375 24.82421875 C-2.26801738 23.44529952 -2.35266447 22.06639395 -2.4375 20.6875 C-2.47681641 19.99720703 -2.51613281 19.30691406 -2.55664062 18.59570312 C-2.74927415 15.52838465 -3.02322717 12.93031848 -4 10 C-3.22265625 7.51953125 -3.22265625 7.51953125 -2.0625 4.8125 C-1.68222656 3.91144531 -1.30195312 3.01039063 -0.91015625 2.08203125 C-0.60980469 1.39496094 -0.30945313 0.70789063 0 0 Z " fill="#BED97F" transform="translate(809,226)"/>
<path d="M0 0 C0.99 0 1.98 0 3 0 C4.03290841 1.93108963 5.05098672 3.870118 6.0625 5.8125 C6.63097656 6.89144531 7.19945312 7.97039062 7.78515625 9.08203125 C9 12 9 12 8 15 C7.4225 13.865625 6.845 12.73125 6.25 11.5625 C4.64507365 8.62689703 4.64507365 8.62689703 1.75 7.0625 C0.88375 7.0315625 0.88375 7.0315625 0 7 C0 4.69 0 2.38 0 0 Z " fill="#E6FB8F" transform="translate(860,200)"/>
<path d="M0 0 C1.76923828 0.01353516 1.76923828 0.01353516 3.57421875 0.02734375 C4.47785156 0.03894531 5.38148438 0.05054688 6.3125 0.0625 C6.3125 0.3925 6.3125 0.7225 6.3125 1.0625 C5.40628906 1.13726562 4.50007812 1.21203125 3.56640625 1.2890625 C-4.66794 2.17784908 -10.30829917 3.69587073 -16.6875 9.0625 C-14.98160439 5.31267417 -13.07383833 3.45771492 -9.6875 1.0625 C-6.26517028 -0.07827657 -3.60076783 -0.03565117 0 0 Z " fill="#D4EBC1" transform="translate(764.6875,361.9375)"/>
<path d="M0 0 C0 0.66 0 1.32 0 2 C-1.175625 2.268125 -2.35125 2.53625 -3.5625 2.8125 C-7.60642688 3.81447119 -11.2167107 5.2659924 -15 7 C-14.00449135 4.3754772 -13.06036546 3.04971273 -10.875 1.25 C-7.01724826 -0.42728337 -4.18486798 -0.2127899 0 0 Z " fill="#C4EF82" transform="translate(732,207)"/>
<path d="M0 0 C2.36810318 0.94724127 3.75207953 1.65291134 5.25 3.75 C6.19251213 6.57753638 6.1345485 9.03993304 6 12 C2.59156258 9.11593757 1.13408616 7.6291735 0.1875 3.1875 C0.125625 2.135625 0.06375 1.08375 0 0 Z " fill="#32B6B5" transform="translate(674,472)"/>
<path d="M0 0 C0 3.90838866 -1.50567876 5.11594107 -4 8 C-4.66 7.67 -5.32 7.34 -6 7 C-4.02 4.69 -2.04 2.38 0 0 Z M-7 8 C-7 11 -7 11 -8.53125 12.82421875 C-9.1809375 13.43910156 -9.830625 14.05398438 -10.5 14.6875 C-11.1496875 15.31011719 -11.799375 15.93273437 -12.46875 16.57421875 C-12.9740625 17.04472656 -13.479375 17.51523437 -14 18 C-14.66 17.67 -15.32 17.34 -16 17 C-13.03 14.03 -10.06 11.06 -7 8 Z " fill="#55B6E1" transform="translate(555,491)"/>
<path d="M0 0 C-0.99 1.485 -0.99 1.485 -2 3 C-0.35 3 1.3 3 3 3 C3 3.66 3 4.32 3 5 C3.66 5.33 4.32 5.66 5 6 C4.34 6 3.68 6 3 6 C2.67 6.66 2.34 7.32 2 8 C0.66102417 7.04956626 -0.67105427 6.08940853 -2 5.125 C-2.7425 4.59132813 -3.485 4.05765625 -4.25 3.5078125 C-4.8275 3.01023437 -5.405 2.51265625 -6 2 C-6 1.34 -6 0.68 -6 0 C-2.25 -1.125 -2.25 -1.125 0 0 Z " fill="#2FAEB9" transform="translate(717,461)"/>
<path d="M0 0 C1.65 1.32 3.3 2.64 5 4 C4.67 4.99 4.34 5.98 4 7 C3.34 6.34 2.68 5.68 2 5 C0.02 5.99 0.02 5.99 -2 7 C-2 7.99 -2 8.98 -2 10 C-6.875 8.25 -6.875 8.25 -8 6 C-6.8553125 5.9071875 -6.8553125 5.9071875 -5.6875 5.8125 C-2.76948191 5.23064738 -2.76948191 5.23064738 -1.1875 2.4375 C-0.795625 1.633125 -0.40375 0.82875 0 0 Z " fill="#94DEAB" transform="translate(774,449)"/>
<path d="M0 0 C4.32425093 1.40245976 5.072973 2.09729734 8 6 C2.72 4.68 -2.56 3.36 -8 2 C-4.29847322 1.07461831 -3.36541838 0.91825838 0 2 C0 1.34 0 0.68 0 0 Z " fill="#199AB2" transform="translate(676,422)"/>
<path d="M0 0 C4.455 0.99 4.455 0.99 9 2 C9 2.66 9 3.32 9 4 C9.928125 4.2165625 9.928125 4.2165625 10.875 4.4375 C13 5 13 5 15 6 C15 6.66 15 7.32 15 8 C9.80355921 6.40109514 4.93387858 4.25861997 0 2 C0 1.34 0 0.68 0 0 Z " fill="#ADDE8E" transform="translate(808,335)"/>
<path d="M0 0 C0.33 0 0.66 0 1 0 C1.25477428 3.4361064 1.47439003 6.87357801 1.6875 10.3125 C1.76033203 11.28896484 1.83316406 12.26542969 1.90820312 13.27148438 C1.96298828 14.20927734 2.01777344 15.14707031 2.07421875 16.11328125 C2.13182373 16.97735596 2.18942871 17.84143066 2.2487793 18.73168945 C2 21 2 21 -1 24 C-0.67 16.08 -0.34 8.16 0 0 Z " fill="#60B58B" transform="translate(824,451)"/>
<path d="M0 0 C4.95 0.99 4.95 0.99 10 2 C9.01 2.495 9.01 2.495 8 3 C8.66 4.32 9.32 5.64 10 7 C6.66666667 5.66666667 3.33333333 4.33333333 0 3 C0 2.01 0 1.02 0 0 Z " fill="#F7FCC8" transform="translate(792,149)"/>
<path d="M0 0 C0.33 0 0.66 0 1 0 C0.38461538 6.52307692 0.38461538 6.52307692 -1.5625 8.9375 C-2.036875 9.288125 -2.51125 9.63875 -3 10 C-3.99 9.01 -4.98 8.02 -6 7 C-5.02433888 5.83040013 -4.044375 4.66438823 -3.0625 3.5 C-2.51722656 2.8503125 -1.97195313 2.200625 -1.41015625 1.53125 C-0.71212891 0.77328125 -0.71212891 0.77328125 0 0 Z " fill="#24A0AF" transform="translate(743,433)"/>
<path d="M0 0 C3.3 0 6.6 0 10 0 C10 0.33 10 0.66 10 1 C7.03 1 4.06 1 1 1 C1 4.63 1 8.26 1 12 C0.01 12.33 -0.98 12.66 -2 13 C-1.34 8.71 -0.68 4.42 0 0 Z " fill="#5AB88C" transform="translate(755,514)"/>
<path d="M0 0 C0.33 0.66 0.66 1.32 1 2 C-0.8125 4.5 -0.8125 4.5 -3 7 C-3.99 7 -4.98 7 -6 7 C-7.68236471 7.62599617 -9.3523962 8.28752268 -11 9 C-7.56638098 5.36440339 -4.2026393 2.63886654 0 0 Z " fill="#7FDAC4" transform="translate(828,496)"/>
<path d="M0 0 C0.33 0 0.66 0 1 0 C1.3457886 5.64788053 0.56064053 9.07569129 -2 14 C-2.99 14.495 -2.99 14.495 -4 15 C-3.52396226 12.87429688 -3.04407402 10.74945573 -2.5625 8.625 C-2.29566406 7.44164062 -2.02882813 6.25828125 -1.75390625 5.0390625 C-1 2 -1 2 0 0 Z " fill="#2094AA" transform="translate(837,476)"/>
<path d="M0 0 C0 3 0 3 -1 5 C-0.34 5.33 0.32 5.66 1 6 C-0.32 6.33 -1.64 6.66 -3 7 C-3 6.01 -3 5.02 -3 4 C-6.63 4 -10.26 4 -14 4 C-14 3.67 -14 3.34 -14 3 C-13.32453125 2.95101563 -12.6490625 2.90203125 -11.953125 2.8515625 C-11.06109375 2.77679688 -10.1690625 2.70203125 -9.25 2.625 C-8.36828125 2.55539062 -7.4865625 2.48578125 -6.578125 2.4140625 C-4.00933618 2.00149945 -2.24158985 1.28839043 0 0 Z " fill="#A3D086" transform="translate(740,278)"/>
<path d="M0 0 C0.33 0.99 0.66 1.98 1 3 C-1.64 5.97 -4.28 8.94 -7 12 C-7.66 11.34 -8.32 10.68 -9 10 C-8.43410156 9.44570313 -7.86820313 8.89140625 -7.28515625 8.3203125 C-6.55167969 7.59585937 -5.81820312 6.87140625 -5.0625 6.125 C-4.33160156 5.40570313 -3.60070312 4.68640625 -2.84765625 3.9453125 C-0.94332001 2.12972808 -0.94332001 2.12972808 0 0 Z " fill="#7DD999" transform="translate(815,490)"/>
<path d="M0 0 C0.66 0.33 1.32 0.66 2 1 C0.27559635 1.98753064 -1.45475026 2.96468806 -3.1875 3.9375 C-4.15042969 4.48277344 -5.11335937 5.02804687 -6.10546875 5.58984375 C-8.80662842 6.90579333 -11.04356101 7.57301887 -14 8 C-14 7.34 -14 6.68 -14 6 C-11.71220962 4.96959833 -9.42048864 3.95047982 -7.125 2.9375 C-6.47402344 2.64294922 -5.82304688 2.34839844 -5.15234375 2.04492188 C-3.45989459 1.30338487 -1.73131425 0.64560999 0 0 Z " fill="#7ADEBC" transform="translate(801,514)"/>
<path d="M0 0 C3.63 0 7.26 0 11 0 C11 0.33 11 0.66 11 1 C10.39671875 0.99097656 9.7934375 0.98195313 9.171875 0.97265625 C6.61470177 1.06751913 4.45386542 1.25666039 2 2 C-0.03880834 4.22610045 -0.8137378 6.16328604 -2 9 C-2.33 8.34 -2.66 7.68 -3 7 C-2.06421005 4.64018187 -1.06652192 2.30368736 0 0 Z " fill="#34A1BF" transform="translate(767,528)"/>
<path d="M0 0 C0.99 1.32 1.98 2.64 3 4 C-0.65333143 6.63379708 -3.48521602 8.46884894 -8 9 C-6 6 -6 6 -3.4375 5.0625 C-2.2309375 4.5365625 -2.2309375 4.5365625 -1 4 C-0.11306697 1.95894361 -0.11306697 1.95894361 0 0 Z " fill="#A4E380" transform="translate(718,418)"/>
<path d="M0 0 C5.02692063 0.45699278 8.14896261 2.99241748 12 6 C11.67 6.66 11.34 7.32 11 8 C7.64701839 6.88233946 6.45275901 5.45275901 4 3 C3.34 3 2.68 3 2 3 C2 2.34 2 1.68 2 1 C1.34 0.67 0.68 0.34 0 0 Z " fill="#EEF6B8" transform="translate(704,384)"/>
<path d="M0 0 C0.66 0 1.32 0 2 0 C2.08121924 1.60332791 2.13929134 3.20784026 2.1875 4.8125 C2.23970703 6.15248047 2.23970703 6.15248047 2.29296875 7.51953125 C1.95081002 10.41647515 1.24606427 11.22555028 -1 13 C-1.04254356 11.00045254 -1.04080783 8.99958364 -1 7 C-0.67 6.67 -0.34 6.34 0 6 C0.04080783 4.00041636 0.04254356 1.99954746 0 0 Z " fill="#69DBA3" transform="translate(707,345)"/>
<path d="M0 0 C1.98 0.99 1.98 0.99 4 2 C4 2.66 4 3.32 4 4 C3.34 4 2.68 4 2 4 C2.33 5.98 2.66 7.96 3 10 C2.01 10 1.02 10 0 10 C0 6.7 0 3.4 0 0 Z " fill="#EBFAA6" transform="translate(858,196)"/>
<path d="M0 0 C1.1484375 1.734375 1.1484375 1.734375 2 4 C1.1015625 6.140625 1.1015625 6.140625 -0.375 8.25 C-0.85710938 8.95640625 -1.33921875 9.6628125 -1.8359375 10.390625 C-2.22007812 10.92171875 -2.60421875 11.4528125 -3 12 C-3.66 11.67 -4.32 11.34 -5 11 C-4.72285156 10.45730469 -4.44570313 9.91460938 -4.16015625 9.35546875 C-3.79792969 8.64003906 -3.43570313 7.92460938 -3.0625 7.1875 C-2.52302734 6.12595703 -2.52302734 6.12595703 -1.97265625 5.04296875 C-0.89269484 2.88189715 -0.89269484 2.88189715 0 0 Z " fill="#6AC99B" transform="translate(752,528)"/>
<path d="M0 0 C1.33333333 0.66666667 2.66666667 1.33333333 4 2 C5.0828125 2.433125 5.0828125 2.433125 6.1875 2.875 C8 4 8 4 8.75 6.125 C8.87375 7.053125 8.87375 7.053125 9 8 C5.8585564 6.16749123 2.77397973 4.36301977 0 2 C0 1.34 0 0.68 0 0 Z " fill="#A6E48D" transform="translate(833,349)"/>
<path d="M0 0 C2.4375 0.6875 2.4375 0.6875 5 2 C5.8125 4.625 5.8125 4.625 6 7 C4.35 6.01 2.7 5.02 1 4 C0.67 4.66 0.34 5.32 0 6 C0 4.02 0 2.04 0 0 Z " fill="#B1EC96" transform="translate(980,295)"/>
<path d="M0 0 C1.45823212 -0.0270043 2.91660675 -0.04639787 4.375 -0.0625 C5.18710937 -0.07410156 5.99921875 -0.08570313 6.8359375 -0.09765625 C9 0 9 0 11 1 C11 1.66 11 2.32 11 3 C6.88425629 2.5251065 3.63616656 1.9789756 0 0 Z " fill="#B5D890" transform="translate(795,303)"/>
<path d="M0 0 C1 2 1 2 0.9375 4.5 C0.71706155 7.17653739 0.71706155 7.17653739 3 9 C1.35 9 -0.3 9 -2 9 C-1.125 1.125 -1.125 1.125 0 0 Z " fill="#C3E9A4" transform="translate(802,325)"/>
<path d="M0 0 C-2.64738916 1.4606285 -3.89448334 2 -7 2 C-7.33 2.99 -7.66 3.98 -8 5 C-7.67 3.35 -7.34 1.7 -7 0 C-3.86650268 -1.04449911 -3.01031744 -0.93423645 0 0 Z " fill="#E3FABC" transform="translate(930,318)"/>
<path d="M0 0 C3.625 -0.1875 3.625 -0.1875 7 0 C6.67 0.99 6.34 1.98 6 3 C3.36 3 0.72 3 -2 3 C-1.34 2.01 -0.68 1.02 0 0 Z " fill="#0F4751" transform="translate(783,302)"/>
<path d="M0 0 C0 0.66 0 1.32 0 2 C-2.64 2 -5.28 2 -8 2 C-8.33 1.34 -8.66 0.68 -9 0 C-5.93109813 -1.53445094 -3.29905734 -0.54984289 0 0 Z " fill="#D0F69C" transform="translate(783,298)"/>
<path d="M0 0 C0 3 0 3 -2 6 C-3.32 5.34 -4.64 4.68 -6 4 C-4.02 2.68 -2.04 1.36 0 0 Z " fill="#D1E9B3" transform="translate(958,294)"/>
<path d="M0 0 C3.96 0 7.92 0 12 0 C12 0.33 12 0.66 12 1 C11.07767578 1.07347656 11.07767578 1.07347656 10.13671875 1.1484375 C9.32847656 1.22320313 8.52023437 1.29796875 7.6875 1.375 C6.48673828 1.47941406 6.48673828 1.47941406 5.26171875 1.5859375 C2.72775559 1.89564426 2.72775559 1.89564426 0 4 C0 2.68 0 1.36 0 0 Z " fill="#83EAA6" transform="translate(756,515)"/>
<path d="M0 0 C2.62187494 1.04874998 3.79371361 1.64931313 5.25 4.125 C5.4975 4.74375 5.745 5.3625 6 6 C5.01 6.495 5.01 6.495 4 7 C2 6 2 6 0.875 2.9375 C0.58625 1.968125 0.2975 0.99875 0 0 Z " fill="#3FB6A8" transform="translate(674,472)"/>
<path d="M0 0 C0.99 0 1.98 0 3 0 C2.67 1.98 2.34 3.96 2 6 C1.34 5.34 0.68 4.68 0 4 C-0.99 4 -1.98 4 -3 4 C-1.6875 2 -1.6875 2 0 0 Z " fill="#B8EC83" transform="translate(748,269)"/>
<path d="M0 0 C5.45454545 0.45454545 5.45454545 0.45454545 8 3 C4.7 2.67 1.4 2.34 -2 2 C-1.34 1.34 -0.68 0.68 0 0 Z " fill="#47CAB8" transform="translate(716,506)"/>
<path d="M0 0 C-7.28571429 3.42857143 -7.28571429 3.42857143 -12 3 C-4.82142857 -1.78571429 -4.82142857 -1.78571429 0 0 Z " fill="#357B8D" transform="translate(966,270)"/>
<path d="M0 0 C0.33 0 0.66 0 1 0 C1 2.64 1 5.28 1 8 C0.01 8 -0.98 8 -2 8 C-1.125 2.25 -1.125 2.25 0 0 Z " fill="#A6E777" transform="translate(754,254)"/>
<path d="M0 0 C0.66 0 1.32 0 2 0 C0.7508258 3.45925163 -0.67527795 6.14693203 -3 9 C-2.5020163 5.26512223 -2.12508244 3.18762365 0 0 Z " fill="#CEE584" transform="translate(813,221)"/>
<path d="M0 0 C0.33 0.66 0.66 1.32 1 2 C0.34 2 -0.32 2 -1 2 C-1.144375 2.78375 -1.28875 3.5675 -1.4375 4.375 C-2 7 -2 7 -3 9 C-3.66 9 -4.32 9 -5 9 C-4.690625 8.236875 -4.38125 7.47375 -4.0625 6.6875 C-3.32106407 4.81210323 -2.63771783 2.91315348 -2 1 C-1.34 0.67 -0.68 0.34 0 0 Z " fill="#A6EE84" transform="translate(711,215)"/>
<path d="M0 0 C0.61875 0.28875 1.2375 0.5775 1.875 0.875 C2.205 1.865 2.535 2.855 2.875 3.875 C0.235 3.545 -2.405 3.215 -5.125 2.875 C-2.69803371 -0.15870787 -2.69803371 -0.15870787 0 0 Z " fill="#F3FCA5" transform="translate(809.125,150.125)"/>
</svg>
